<?xml version="1.0" encoding="utf-8"?>
<!-- Generator: Adobe Illustrator 23.0.5, SVG Export Plug-In . SVG Version: 6.00 Build 0)  -->
<svg version="1.1" id="Layer_1" xmlns="http://www.w3.org/2000/svg" xmlns:xlink="http://www.w3.org/1999/xlink" x="0px" y="0px"
	 viewBox="0 0 100 100" style="enable-background:new 0 0 100 100;" xml:space="preserve">
<style type="text/css">
	.st0{fill:#CCCCCC;}
	.st1{fill:#FFFFFF;}
	.st2{fill:#F2F2F2;}
	.st3{fill:#B3B3B3;}
	.st4{fill:#ECEDED;}
	.st5{fill:#ECEDEE;}
</style>
<g>
	<circle class="st0" cx="50" cy="50" r="48"/>
	<g>
		<path class="st1" d="M67.4,71.4c0,0.4,0,0.7,0,1.1c0,0.4-0.2,0.6-0.6,0.7c-0.1,0-0.2,0-0.3,0c-9.7,0-19.5,0-29.2,0
			c-0.1,0-0.2,0-0.2,0c-0.4,0-0.6-0.2-0.6-0.7c0-0.4,0-0.8,0-1.1c0-0.5,0-0.9,0-1.4c0-2.5,0-5,0-7.5c0-1.5,0-3,0-4.4
			c0-0.1,0-0.3,0-0.4c0-2.9,0-5.8,0-8.7c0-0.1,0-0.3,0-0.4c0-0.4,0-0.7,0-1.1c0-1.8,0-3.5,0-5.3c0-0.1,0-0.2,0-0.2
			c0-3.3,0-6.6,0-9.9c0-0.1,0-0.2,0-0.3c0-0.1,0-0.3,0-0.4c0-1.2,0-2.4,0-3.6c0-0.8,0.1-0.9,1-0.9c9.7,0,19.3,0,29,0
			c0.8,0,1,0.1,1,0.9c0,1.3,0,2.7,0,4c0,0.1,0,0.3,0,0.4c0,2.8,0,5.7,0,8.5c0,0.6,0,1.1,0,1.7c0,0.6,0,1.2,0,1.8c0,1.2,0,2.5,0,3.7
			c0,0.2,0,0.4,0,0.6c0,0.1,0,0.1,0,0.2c0,3.1,0,6.1,0,9.2c0,0.1,0,0.2,0,0.3c0,1.5,0,3,0,4.5c0,1.4,0,2.9,0,4.3c0,1.1,0,2.1,0,3.2
			C67.4,70.5,67.4,70.9,67.4,71.4z M57.9,47.6c0.1-0.1,0.2-0.2,0.3-0.3c2.4-2.8,2.9-5.9,1.5-9.2c-1.2-2.9-3.5-4.5-6.6-5
			c-1.6-0.2-3.2,0-4.7,0.7c-3.9,1.8-5.8,6-4.7,10.1c0.4,1.6,1.3,2.9,2.5,4c0.5,0.6,1.1,0.9,1.8,1.3C49,49.6,50,49.9,51,50
			c0.8,0.1,1.6,0.1,2.4,0c1-0.2,2-0.5,2.9-1C56.9,48.6,57.5,48.2,57.9,47.6z M60.6,67.1c0-1.8,0-3.5,0-5.3c-5.8,0-11.6,0-17.4,0
			c0,1.8,0,3.5,0,5.3C49,67.1,54.8,67.1,60.6,67.1z M51.1,57.1C51.1,57.1,51.2,57.1,51.1,57.1c0.2,0,0.4-0.1,0.6-0.3
			c0.2-0.2,0.4-0.2,0.6,0c0.2,0.1,0.4,0.2,0.5,0.3c0,0,0,0,0.1,0c-0.1-0.2-0.1-0.4-0.2-0.6c-0.1-0.2,0-0.4,0.2-0.6
			c0.2-0.1,0.4-0.3,0.6-0.5c-0.3,0-0.4,0-0.6-0.1c-0.6,0-0.5,0-0.7-0.5c-0.1-0.2-0.1-0.3-0.2-0.5c-0.1,0.2-0.2,0.4-0.3,0.6
			c-0.1,0.3-0.2,0.4-0.5,0.4c-0.2,0-0.4,0-0.6,0c0,0,0,0.1,0,0.1c0.1,0.1,0.3,0.3,0.4,0.4c0.3,0.3,0.3,0.3,0.2,0.7
			C51.2,56.7,51.2,56.9,51.1,57.1z M44.7,57.1C44.7,57.1,44.8,57.1,44.7,57.1c0-0.3,0-0.5-0.1-0.7c-0.1-0.2,0-0.4,0.2-0.5
			c0.2-0.1,0.4-0.3,0.6-0.5c-0.3,0-0.5-0.1-0.8,0c-0.3,0-0.4-0.1-0.5-0.3c-0.1-0.2-0.2-0.5-0.3-0.7c-0.2,0.3-0.3,0.5-0.3,0.7
			c0,0.2-0.2,0.3-0.3,0.3c-0.2,0-0.5,0-0.8,0.1c0,0.1,0,0.1,0.1,0.1c0.1,0.1,0.2,0.2,0.4,0.3c0.3,0.3,0.3,0.3,0.2,0.7
			c-0.1,0.2-0.1,0.4-0.1,0.6c0.3-0.1,0.5-0.2,0.6-0.3c0.2-0.1,0.4-0.2,0.5,0C44.3,56.9,44.5,57,44.7,57.1z M59.2,57.1
			C59.3,57.1,59.3,57.1,59.2,57.1c0.3-0.1,0.5-0.2,0.6-0.3c0.2-0.1,0.3-0.1,0.5,0c0.2,0.1,0.4,0.3,0.6,0.4c0,0,0,0,0.1,0
			c-0.1-0.2-0.1-0.4-0.2-0.6c-0.1-0.3,0-0.5,0.2-0.6c0.2-0.1,0.3-0.3,0.6-0.5c-0.3,0-0.5,0-0.8,0c-0.2,0-0.4-0.1-0.4-0.3
			c-0.1-0.2-0.2-0.5-0.3-0.8c-0.1,0.3-0.2,0.5-0.3,0.7c-0.1,0.3-0.2,0.4-0.5,0.4c-0.2,0-0.4,0-0.7,0c0.2,0.2,0.4,0.4,0.6,0.6
			c0.2,0.1,0.2,0.2,0.1,0.4C59.3,56.6,59.3,56.8,59.2,57.1z M46.6,55.3C46.6,55.4,46.6,55.4,46.6,55.3c0.1,0.2,0.3,0.4,0.4,0.5
			c0.2,0.2,0.3,0.4,0.2,0.6c-0.1,0.2-0.1,0.4-0.2,0.6c0,0,0,0,0.1,0c0.2-0.1,0.4-0.2,0.6-0.4c0.2-0.1,0.3-0.2,0.5,0
			c0.2,0.1,0.4,0.3,0.6,0.4c0,0,0,0,0.1-0.1c-0.1-0.2-0.1-0.5-0.2-0.7c-0.1-0.2,0-0.3,0.1-0.4c0.2-0.2,0.4-0.3,0.6-0.6
			c-0.3,0-0.5,0-0.6-0.1c-0.4,0-0.4,0.1-0.6-0.4c-0.1-0.2-0.2-0.4-0.2-0.6c-0.1,0.2-0.2,0.4-0.3,0.6c-0.1,0.3-0.2,0.4-0.5,0.4
			C47,55.3,46.8,55.3,46.6,55.3z M56.9,57.1C56.9,57.1,57,57.1,56.9,57.1c0-0.3,0-0.5-0.1-0.7c-0.1-0.3,0-0.4,0.2-0.6
			c0.2-0.1,0.3-0.3,0.6-0.5c-0.3,0-0.5,0-0.7-0.1c-0.4,0-0.4,0-0.5-0.4c-0.1-0.2-0.1-0.4-0.2-0.6c0,0-0.1,0-0.1,0
			c-0.1,0.2-0.2,0.5-0.3,0.7c-0.1,0.2-0.2,0.3-0.4,0.3c-0.2,0-0.5,0-0.8,0c0.2,0.2,0.4,0.3,0.5,0.5c0.2,0.2,0.3,0.3,0.2,0.6
			c-0.1,0.2-0.1,0.4-0.2,0.7c0,0,0,0,0.1,0c0.2-0.1,0.4-0.2,0.6-0.4c0.2-0.1,0.3-0.1,0.5,0C56.5,56.9,56.7,57,56.9,57.1z"/>
		<path class="st2" d="M67.4,42.3c0-0.6,0-1.1,0-1.7c0-2.8,0-5.7,0-8.5c0-0.1,0-0.3,0-0.4c0.4,0.1,0.9,0.2,1.3,0.4
			c1.9,0.6,3.7,1.1,5.6,1.7c1.1,0.3,2.1,0.7,3.1,1c1.7,0.5,3.5,1.1,5.2,1.6c1.1,0.4,2.3,0.7,3.4,1.1c0.2,0.1,0.4,0.1,0.7,0.2
			c0.5,0.2,0.7,0.5,0.5,1c-0.3,1.1-0.7,2.1-1,3.2c0,0.1,0,0.2-0.1,0.4c0,0-0.1,0.1-0.1,0.1c-0.3,0.9-0.5,1.7-0.8,2.6
			c-0.3,1.1-0.7,2.1-1,3.2c-0.5,1.7-1.1,3.4-1.6,5.1c-0.3,0.8-0.5,1.6-0.8,2.5c-0.4,1.4-0.9,2.8-1.3,4.2c-0.3,1.1-0.7,2.1-1,3.2
			c-0.6,1.8-1.1,3.6-1.6,5.3c-0.2,0.7-0.5,1.5-0.7,2.2c-0.1,0.5-0.3,0.9-0.4,1.4c-0.2,0.4-0.5,0.6-0.9,0.5c-0.2-0.1-0.5-0.2-0.7-0.2
			c-0.8-0.2-1.6-0.5-2.4-0.7c-1.5-0.5-3-0.9-4.5-1.4c-0.3-0.1-0.7-0.2-1-0.3c0-1.1,0-2.1,0-3.2c0-1.4,0-2.9,0-4.3c0.1,0,0.2,0,0.3,0
			c0.4,0.1,0.8,0.2,1.2,0.4c1.5,0.5,2.9,0.9,4.4,1.4c0.1,0,0.2,0,0.3,0.1c0.4-1.4,0.8-2.7,1.3-4c-0.9-0.3-1.8-0.5-2.6-0.8
			c-1.5-0.5-3-0.9-4.5-1.4c-0.1,0-0.2,0-0.3-0.1c0-0.1,0-0.2,0-0.3c0-3.1,0-6.1,0-9.2c0-0.1,0-0.1,0-0.2c0.4,0.4,0.7,0.9,1.1,1.2
			c1,0.8,2.2,1.2,3.4,1.4c0.5,0,1,0,1.5-0.2c0.3-0.1,0.7-0.1,1-0.4c0.1,0,0.2-0.1,0.4-0.1c0.7-0.3,1.2-0.9,1.7-1.5
			c1.1-1.5,1.4-3.2,0.9-5c-0.4-1.3-1.1-2.3-2.3-3.1c-0.7-0.5-1.4-0.8-2.2-0.9c-1.1-0.1-2.3,0-3.3,0.5c-0.8,0.4-1.4,0.9-1.9,1.6
			C67.6,42.1,67.5,42.2,67.4,42.3z M69.4,53.7c-0.2,0-0.5,0.3-0.5,0.5c0,0.2,0.2,0.5,0.5,0.5c0.3,0,0.5-0.2,0.5-0.5
			C69.9,53.9,69.7,53.7,69.4,53.7z M72.4,54.9c0-0.3-0.2-0.5-0.5-0.5c-0.2,0-0.5,0.3-0.5,0.5c0,0.3,0.2,0.5,0.5,0.5
			C72.2,55.4,72.4,55.2,72.4,54.9z M74.4,55.3c-0.3,0-0.5,0.2-0.5,0.5c0,0.2,0.3,0.5,0.5,0.5c0.2,0,0.5-0.3,0.5-0.5
			C74.9,55.4,74.7,55.3,74.4,55.3z"/>
		<path class="st2" d="M36.4,48.5c0,0.1,0,0.3,0,0.4c0,2.9,0,5.8,0,8.7c0,0.1,0,0.3,0,0.4c0,0-0.1,0-0.1,0c-1.4,0.4-2.7,0.8-4.1,1.3
			c-0.6,0.2-1.3,0.4-1.9,0.6c-0.4,0.1-0.8,0.3-1.2,0.4c0.4,1.3,0.8,2.6,1.2,4c0.1,0,0.3,0,0.4-0.1c1.2-0.4,2.3-0.7,3.5-1.1
			c0.7-0.2,1.5-0.4,2.2-0.6c0,2.5,0,5,0,7.5c-0.1,0-0.1,0-0.2,0c-1.1,0.3-2.2,0.7-3.2,1c-1.3,0.4-2.7,0.8-4,1.3
			c-0.4,0.1-0.7,0.2-1.1,0.3c-0.5,0.1-0.8,0-0.9-0.5c-0.5-1.5-0.9-3.1-1.4-4.6c-0.3-0.8-0.5-1.6-0.8-2.5c-0.4-1.2-0.7-2.4-1.1-3.6
			c-0.3-0.9-0.5-1.7-0.8-2.6c-0.5-1.7-1-3.3-1.5-5c-0.2-0.6-0.4-1.3-0.6-1.9c-0.5-1.6-0.9-3.1-1.4-4.7c-0.2-0.8-0.5-1.6-0.8-2.4
			c-0.3-0.9-0.5-1.7-0.8-2.6c-0.1-0.2-0.1-0.5-0.2-0.7c-0.3-0.9-0.6-1.9-0.9-2.8c-0.2-0.6,0-0.9,0.6-1.1c1.7-0.5,3.3-1,5-1.5
			c0.9-0.3,1.8-0.6,2.7-0.9c1.6-0.5,3.1-1,4.7-1.4c0.9-0.3,1.8-0.6,2.7-0.9c1.3-0.4,2.5-0.8,3.8-1.2c0.1,0,0.1,0,0.2,0
			c0,0.1,0,0.2,0,0.3c0,3.3,0,6.6,0,9.9c0,0.1,0,0.2,0,0.2c-0.1,0-0.1,0-0.2-0.1c-0.1-0.2-0.3-0.4-0.4-0.5c-0.5-0.5-1-0.9-1.7-1.2
			c-0.5-0.2-1-0.4-1.6-0.5c-0.8-0.1-1.6-0.1-2.4,0.2c-1.1,0.3-2,0.9-2.7,1.8c-1,1.3-1.5,2.8-1.2,4.4c0.3,1.7,1.2,2.9,2.6,3.9
			c0.2,0.1,0.5,0.2,0.7,0.3c0.1,0.1,0.2,0.1,0.3,0.2c0.8,0.3,1.6,0.4,2.4,0.3c0.7-0.1,1.3-0.2,1.9-0.5C35.1,50,35.9,49.3,36.4,48.5z
			 M34.6,53.7c-0.3,0-0.5,0.2-0.5,0.5c0,0.3,0.2,0.5,0.5,0.5c0.3,0,0.5-0.2,0.5-0.5C35.1,53.9,34.9,53.7,34.6,53.7z M32.5,54.9
			c0-0.3-0.2-0.5-0.5-0.5c-0.3,0-0.5,0.2-0.5,0.5c0,0.3,0.2,0.5,0.5,0.5C32.3,55.4,32.5,55.2,32.5,54.9z M29.6,56.2
			c0.3,0,0.5-0.2,0.5-0.5c0-0.3-0.2-0.5-0.5-0.5c-0.2,0-0.5,0.3-0.5,0.5C29,56,29.2,56.2,29.6,56.2z"/>
		<path class="st1" d="M17.8,42.2c0.3,0.9,0.6,1.7,0.8,2.6c0.3,0.8,0.5,1.6,0.8,2.4c0.5,1.6,0.9,3.1,1.4,4.7
			c0.2,0.6,0.4,1.3,0.6,1.9c0.5,1.7,1,3.3,1.5,5c0.3,0.9,0.6,1.7,0.8,2.6c0.4,1.2,0.7,2.4,1.1,3.6c0.3,0.8,0.5,1.6,0.8,2.5
			c0.5,1.5,0.9,3.1,1.4,4.6c0.1,0.5,0.4,0.6,0.9,0.5c0.4-0.1,0.7-0.2,1.1-0.3c1.3-0.4,2.7-0.8,4-1.3c1.1-0.3,2.2-0.7,3.2-1
			c0,0,0.1,0,0.2,0c0,0.5,0,0.9,0,1.4c-0.1,0-0.2,0.1-0.3,0.1c-0.8,0.6-1.6,1.2-2.4,1.7c-0.8,0.6-1.7,1.2-2.5,1.8
			c-0.9,0.6-1.7,1.2-2.6,1.9c-0.6,0.5-0.8,0.4-1.2-0.2c-0.3-0.4-0.6-0.8-0.9-1.2c-0.9-1.3-1.9-2.6-2.8-3.9c-0.8-1.1-1.5-2.1-2.3-3.2
			c-0.8-1.1-1.6-2.2-2.5-3.3c-0.6-0.9-1.3-1.8-1.9-2.6c-1.1-1.6-2.3-3.1-3.5-4.7c-0.9-1.2-1.7-2.3-2.5-3.5c-0.7-1-1.5-2-2.2-3
			c-0.3-0.4-0.6-0.8-0.8-1.1c-0.3-0.4-0.2-0.8,0.1-1c0.7-0.5,1.4-1,2.1-1.5c1.1-0.8,2.2-1.6,3.3-2.4c0.8-0.6,1.6-1.1,2.4-1.7
			c0.5-0.4,1-0.7,1.5-1.1C17.6,42.3,17.7,42.3,17.8,42.2z"/>
		<path class="st1" d="M67.4,70c0.3,0.1,0.7,0.2,1,0.3c1.5,0.5,3,0.9,4.5,1.4c0.8,0.2,1.6,0.5,2.4,0.7c0.2,0.1,0.5,0.2,0.7,0.2
			c0.4,0.1,0.8,0,0.9-0.5c0.2-0.5,0.3-0.9,0.4-1.4c0.2-0.7,0.5-1.5,0.7-2.2c0.5-1.8,1.1-3.6,1.6-5.3c0.3-1.1,0.7-2.1,1-3.2
			c0.4-1.4,0.9-2.8,1.3-4.2c0.3-0.8,0.5-1.6,0.8-2.5c0.5-1.7,1.1-3.4,1.6-5.1c0.3-1.1,0.7-2.1,1-3.2c0.3-0.9,0.5-1.7,0.8-2.6
			c0,0,0.1-0.1,0.1-0.1c1.3,0.9,2.5,1.8,3.8,2.8c1.1,0.8,2.1,1.5,3.2,2.3c0.8,0.6,1.6,1.1,2.4,1.7c0.3,0.2,0.4,0.6,0.1,1
			c-1.3,1.7-2.6,3.5-3.8,5.2c-1.1,1.4-2.1,2.9-3.1,4.3c-1,1.4-2,2.8-3.1,4.2c-0.9,1.2-1.8,2.5-2.7,3.7c-0.7,0.9-1.3,1.8-2,2.7
			c-0.7,1-1.4,1.9-2.1,2.9c-0.9,1.2-1.7,2.4-2.6,3.6c-0.1,0.1-0.1,0.1-0.2,0.2c-0.3,0.3-0.4,0.3-0.8,0.1c-0.7-0.5-1.4-1-2.1-1.5
			c-0.9-0.7-1.8-1.3-2.7-2c-0.9-0.7-1.8-1.3-2.7-2c-0.1-0.1-0.2-0.1-0.3-0.1C67.4,70.9,67.4,70.5,67.4,70z"/>
		<path class="st1" d="M60.2,67.1H43.7c-0.3,0-0.5-0.2-0.5-0.5v-4.3c0-0.3,0.2-0.5,0.5-0.5h16.5c0.3,0,0.5,0.2,0.5,0.5v4.3
			C60.6,66.9,60.4,67.1,60.2,67.1z"/>
		<path class="st1" d="M67.4,42.3c0.1-0.1,0.2-0.2,0.3-0.3c0.5-0.7,1.2-1.2,1.9-1.6c1-0.5,2.2-0.7,3.3-0.5c0.8,0.1,1.5,0.4,2.2,0.9
			c1.1,0.8,1.9,1.8,2.3,3.1c0.5,1.8,0.2,3.5-0.9,5c-0.5,0.6-1,1.1-1.7,1.5c-0.1,0.1-0.2,0.1-0.4,0.1c0-0.3,0-0.6-0.1-0.9
			c-0.1-0.7-0.4-1.4-0.9-1.9c-0.1-0.1-0.3-0.2-0.5-0.1c-0.6,0.1-1.1,0.1-1.6-0.2c-0.5-0.2-0.8-0.6-1.1-1c-0.6,0-1.1,0.2-1.6,0.5
			c-0.5,0.3-0.9,0.7-1.2,1.1c0-1.2,0-2.5,0-3.7C67.4,43.5,67.4,42.9,67.4,42.3z M72.4,46.8c1.1,0.1,1.8-0.9,1.8-1.8
			c0-1-0.8-1.8-1.8-1.8c-1,0-1.9,0.8-1.8,1.8C70.6,45.9,71.3,46.8,72.4,46.8z"/>
		<path class="st1" d="M29.6,50.4c-0.2-0.1-0.5-0.2-0.7-0.3c-1.4-0.9-2.3-2.2-2.6-3.9c-0.3-1.6,0.2-3.1,1.2-4.4
			c0.7-0.9,1.6-1.4,2.7-1.8c0.8-0.2,1.6-0.2,2.4-0.2c0.5,0,1.1,0.2,1.6,0.5c0.6,0.3,1.2,0.7,1.7,1.2c0.2,0.2,0.3,0.4,0.4,0.5
			c0,0,0.1,0.1,0.2,0.1c0,1.8,0,3.5,0,5.3c-0.1,0-0.1-0.1-0.2-0.1c-0.6-0.5-1.2-0.9-2-1.1c-0.2,0-0.4,0-0.5,0.2
			c-0.2,0.2-0.4,0.4-0.7,0.6c-0.6,0.4-1.3,0.4-1.9,0.3c-0.2,0-0.3,0-0.5,0.1c-0.1,0.1-0.2,0.2-0.3,0.3
			C29.8,48.6,29.6,49.5,29.6,50.4z M33.5,44.9c0.1-1.2-0.9-1.8-1.8-1.8c-0.9,0-1.8,0.7-1.8,1.8c0,1,0.8,1.8,1.9,1.8
			C32.6,46.7,33.6,45.9,33.5,44.9z"/>
		<path class="st1" d="M46.3,47.9c0.2-0.6,0.4-1.2,0.7-1.7c0.6-1,1.4-1.8,2.4-2.3c0.2-0.1,0.3,0,0.4,0.1c0.7,0.5,1.4,0.7,2.3,0.7
			c0.8,0,1.5-0.2,2.2-0.7c0.1-0.1,0.2-0.1,0.3-0.2c1.4,0.6,2.4,1.6,3,3c0.1,0.3,0.2,0.5,0.3,0.8c-0.5,0.5-1,0.9-1.6,1.3
			c-0.9,0.5-1.9,0.9-2.9,1c-0.8,0.1-1.6,0.1-2.4,0c-1-0.1-2-0.4-2.9-0.9C47.5,48.8,46.8,48.4,46.3,47.9z"/>
		<path class="st3" d="M67.4,58C67.4,58,67.4,58,67.4,58c1.6,0.5,3.2,1,4.8,1.5c0.7,0.2,1.4,0.4,2,0.6c0.3,0.1,0.5,0.4,0.4,0.7
			l-1.1,3.5c-0.1,0-0.2,0-0.3-0.1c-1.5-0.5-2.9-0.9-4.4-1.4c-0.4-0.1-0.8-0.2-1.2-0.4c-0.1,0-0.2,0-0.3,0L67.4,58z"/>
		<path class="st3" d="M36.5,62.5c-0.7,0.2-1.5,0.4-2.2,0.6c-1.2,0.4-2.3,0.7-3.5,1.1c-0.1,0-0.3,0-0.4,0.1c-0.4-1.3-0.8-2.6-1.2-4
			c0.4-0.1,0.8-0.3,1.2-0.4c0.6-0.2,1.3-0.4,1.9-0.6c1.4-0.4,2.7-0.8,4.1-1.3c0,0,0.1,0,0.1,0C36.4,59.5,36.5,61,36.5,62.5z"/>
		<path class="st3" d="M67.4,47.8c0.3-0.4,0.8-0.8,1.2-1.1c0.5-0.3,1-0.4,1.6-0.5c0.3,0.4,0.6,0.8,1.1,1c0.5,0.2,1.1,0.3,1.6,0.2
			c0.2,0,0.3,0,0.5,0.1c0.5,0.5,0.8,1.2,0.9,1.9c0.1,0.3,0.1,0.6,0.1,0.9c-0.3,0.3-0.6,0.3-1,0.4C73,50.9,72.5,51,72,51
			c-1.3-0.1-2.4-0.5-3.4-1.4c-0.4-0.4-0.7-0.8-1.1-1.2C67.4,48.2,67.4,48,67.4,47.8z"/>
		<path class="st3" d="M29.6,50.4c0-1,0.2-1.9,0.8-2.7c0.1-0.1,0.2-0.2,0.3-0.3c0.1-0.2,0.3-0.2,0.5-0.1c0.7,0.1,1.3,0.1,1.9-0.3
			c0.2-0.2,0.5-0.4,0.7-0.6c0.2-0.2,0.3-0.2,0.5-0.2c0.8,0.1,1.4,0.6,2,1.1c0,0,0.1,0.1,0.2,0.1c0,0.4,0,0.7,0,1.1
			c-0.6,0.8-1.3,1.4-2.2,1.9c-0.6,0.3-1.2,0.5-1.9,0.5c-0.8,0.1-1.6,0-2.4-0.3C29.8,50.6,29.7,50.5,29.6,50.4z"/>
		<path class="st4" d="M51.1,57.1c0-0.2,0.1-0.4,0.1-0.5c0.1-0.4,0.1-0.4-0.2-0.7c-0.2-0.1-0.3-0.3-0.4-0.4c0,0,0-0.1,0-0.1
			c0.2,0,0.4,0,0.6,0c0.3,0,0.5-0.1,0.5-0.4c0-0.2,0.1-0.4,0.3-0.6c0.1,0.2,0.1,0.3,0.2,0.5c0.2,0.5,0.1,0.5,0.7,0.5
			c0.2,0,0.4,0,0.6,0.1c-0.2,0.2-0.4,0.4-0.6,0.5c-0.2,0.2-0.3,0.3-0.2,0.6c0.1,0.2,0.1,0.4,0.2,0.6c0,0,0,0-0.1,0
			c-0.2-0.1-0.4-0.2-0.5-0.3c-0.2-0.2-0.4-0.2-0.6,0C51.5,56.9,51.4,57,51.1,57.1C51.2,57.1,51.1,57.1,51.1,57.1z"/>
		<path class="st4" d="M44.7,57.1c-0.2-0.1-0.4-0.2-0.5-0.4c-0.2-0.2-0.4-0.1-0.5,0c-0.2,0.1-0.4,0.2-0.6,0.3c0-0.2,0.1-0.4,0.1-0.6
			c0.1-0.4,0.1-0.4-0.2-0.7c-0.1-0.1-0.2-0.2-0.4-0.3c0,0,0-0.1-0.1-0.1c0.3,0,0.5,0,0.8-0.1c0.2,0,0.3-0.1,0.3-0.3
			c0.1-0.2,0.2-0.5,0.3-0.7c0.1,0.2,0.2,0.4,0.3,0.7c0.1,0.3,0.2,0.3,0.5,0.3c0.2,0,0.4,0,0.8,0c-0.2,0.2-0.4,0.4-0.6,0.5
			c-0.2,0.1-0.3,0.3-0.2,0.5C44.7,56.6,44.7,56.8,44.7,57.1C44.8,57.1,44.7,57.1,44.7,57.1z"/>
		<path class="st5" d="M59.2,57.1c0.1-0.2,0.1-0.5,0.2-0.7c0.1-0.2,0-0.3-0.1-0.4c-0.2-0.2-0.4-0.3-0.6-0.6c0.2,0,0.4,0,0.7,0
			c0.3,0,0.4-0.1,0.5-0.4c0.1-0.2,0.2-0.4,0.3-0.7c0.1,0.3,0.2,0.5,0.3,0.8c0.1,0.3,0.2,0.3,0.4,0.3c0.2,0,0.5,0,0.8,0
			c-0.2,0.2-0.4,0.4-0.6,0.5c-0.2,0.2-0.3,0.3-0.2,0.6c0.1,0.2,0.1,0.4,0.2,0.6c0,0,0,0-0.1,0c-0.2-0.1-0.4-0.2-0.6-0.4
			c-0.2-0.1-0.3-0.1-0.5,0C59.7,56.9,59.5,57,59.2,57.1C59.3,57.1,59.3,57.1,59.2,57.1z"/>
		<path class="st4" d="M46.6,55.3c0.2,0,0.4,0,0.6,0c0.3,0,0.5-0.1,0.5-0.4c0-0.2,0.1-0.4,0.3-0.6c0.1,0.2,0.2,0.4,0.2,0.6
			c0.2,0.5,0.1,0.4,0.6,0.4c0.2,0,0.4,0,0.6,0.1c-0.2,0.2-0.4,0.4-0.6,0.6c-0.2,0.1-0.2,0.2-0.1,0.4c0.1,0.2,0.1,0.5,0.2,0.7
			c0,0,0,0-0.1,0.1c-0.2-0.1-0.4-0.2-0.6-0.4c-0.2-0.1-0.3-0.1-0.5,0c-0.2,0.1-0.4,0.2-0.6,0.4c0,0,0,0-0.1,0
			c0.1-0.2,0.1-0.4,0.2-0.6c0.1-0.3,0-0.5-0.2-0.6C46.9,55.7,46.7,55.6,46.6,55.3C46.6,55.4,46.6,55.4,46.6,55.3z"/>
		<path class="st4" d="M56.9,57.1c-0.2-0.1-0.4-0.2-0.6-0.4c-0.2-0.1-0.3-0.2-0.5,0c-0.2,0.1-0.4,0.3-0.6,0.4c0,0,0,0-0.1,0
			c0-0.2,0.1-0.5,0.2-0.7c0.1-0.3,0-0.4-0.2-0.6c-0.2-0.1-0.3-0.3-0.5-0.5c0.3,0,0.6,0,0.8,0c0.2,0,0.3-0.1,0.4-0.3
			c0.1-0.2,0.2-0.5,0.3-0.7c0,0,0.1,0,0.1,0c0.1,0.2,0.2,0.4,0.2,0.6c0.1,0.4,0.1,0.4,0.5,0.4c0.2,0,0.4,0,0.7,0.1
			c-0.2,0.2-0.4,0.4-0.6,0.5c-0.2,0.2-0.3,0.3-0.2,0.6C56.9,56.6,56.9,56.9,56.9,57.1C57,57.1,56.9,57.1,56.9,57.1z"/>
		<path class="st3" d="M69.4,53.7c0.3,0,0.5,0.3,0.5,0.5c0,0.3-0.2,0.5-0.5,0.5c-0.3,0-0.5-0.3-0.5-0.5
			C68.9,53.9,69.2,53.7,69.4,53.7z"/>
		<path class="st3" d="M72.4,54.9c0,0.3-0.2,0.5-0.5,0.5c-0.3,0-0.5-0.3-0.5-0.5c0-0.2,0.3-0.5,0.5-0.5
			C72.2,54.4,72.4,54.6,72.4,54.9z"/>
		<path class="st3" d="M74.4,55.3c0.3,0,0.5,0.2,0.5,0.5c0,0.2-0.3,0.5-0.5,0.5c-0.2,0-0.5-0.3-0.5-0.5
			C73.9,55.4,74.1,55.3,74.4,55.3z"/>
		<path class="st3" d="M34.6,53.7c0.3,0,0.5,0.2,0.5,0.5c0,0.3-0.2,0.5-0.5,0.5c-0.3,0-0.5-0.2-0.5-0.5
			C34.1,53.8,34.3,53.7,34.6,53.7z"/>
		<path class="st3" d="M32.5,54.9c0,0.3-0.2,0.5-0.5,0.5c-0.3,0-0.5-0.2-0.5-0.5c0-0.3,0.2-0.5,0.5-0.5
			C32.4,54.4,32.5,54.6,32.5,54.9z"/>
		<path class="st3" d="M29.6,56.2c-0.3,0-0.5-0.2-0.5-0.5c0-0.3,0.3-0.5,0.5-0.5c0.3,0,0.5,0.3,0.5,0.5C30.1,56,29.8,56.2,29.6,56.2
			z"/>
		<path class="st1" d="M52.1,43.5c-1.5,0.1-2.8-1.3-2.8-2.8c0-1.5,1.4-2.8,2.8-2.7c1.5,0,2.8,1.3,2.8,2.8
			C54.9,42.2,53.5,43.6,52.1,43.5z"/>
		<path class="st3" d="M72.4,46.8c-1.2,0-1.8-0.9-1.8-1.8c0-1.1,0.9-1.8,1.8-1.8c1.1,0,1.8,0.8,1.8,1.8
			C74.2,45.9,73.5,46.8,72.4,46.8z"/>
		<path class="st3" d="M33.5,44.9c0.1,1.1-0.9,1.8-1.7,1.8c-1.1,0-1.9-0.8-1.9-1.8c0-1.1,0.9-1.8,1.8-1.8
			C32.7,43,33.6,43.7,33.5,44.9z"/>
	</g>
</g>
</svg>
