<?xml version="1.0" encoding="utf-8"?>
<!-- Generator: Adobe Illustrator 23.0.5, SVG Export Plug-In . SVG Version: 6.00 Build 0)  -->
<svg version="1.1" id="Layer_1" xmlns="http://www.w3.org/2000/svg" xmlns:xlink="http://www.w3.org/1999/xlink" x="0px" y="0px"
	 viewBox="0 0 100 100" style="enable-background:new 0 0 100 100;" xml:space="preserve">
<style type="text/css">
	.st0{fill:#B3B3B3;}
</style>
<g>
	<path class="st0" d="M42.6,16c0,0-0.2,0-0.3,0.1c-12.9,3.4-21.7,11.3-26.1,24c-1.4,4.2-1.9,8.5-1.7,12.9
		C15.5,68.4,25.5,81.1,40,85.4c12.9,3.9,24.6,0.9,34.7-8c0.2-0.2,0.4-0.4,0.6-0.6c0,0,0.1-0.1,0.1-0.1l-5.6-6.2c0,0-0.1,0.1-0.1,0.1
		c-2.5,2.2-5.2,3.9-8.3,5.1c-3.5,1.4-7.1,2.1-11,2.1c0-1.3,0-0.3,0-1.6c0-4.3,0-8.6,0-13c-4.9,0-9.8,0-14.8,0c0.2-0.6,0.2-1,0.4-1.3
		c4.5-8.9,9-17.9,13.5-26.8c0.6-1.2,0.8-2.5,0.8-3.9c0-9.2,0-18.4,0-27.6c0-0.3,0-0.6,0-1.1c0.9,0,1.7,0,2.6,0
		c15,0.9,27,7.4,36.2,19.1c5.2,6.6,8.2,14.2,9.4,22.5c3.6,25.3-12.9,49-37.8,54.3c-4.6,1-9.3,1.1-14,0.8c-6.7-0.4-13-2.1-18.9-5.3
		C15.9,87.7,7.8,78,3.8,65.1c-1.1-3.6-1.6-7.2-1.9-11c-0.5-8.9,1-17.4,5.2-25.3c6.7-12.7,17-21,30.9-24.8c1.5-0.4,3-0.6,4.5-0.9
		c0.1,0,0.2,0,0.2,0L42.6,16z M67.4,40.9c3.9,0,7.1-3.2,7.1-7c0-3.9-3.2-7.1-7.1-7.1c-3.9,0-7.1,3.2-7.1,7.1
		C60.3,37.7,63.5,40.9,67.4,40.9z"/>
</g>
</svg>
