<?xml version="1.0" encoding="utf-8"?>
<!-- Generator: Adobe Illustrator 23.0.5, SVG Export Plug-In . SVG Version: 6.00 Build 0)  -->
<svg version="1.1" id="Layer_1" xmlns="http://www.w3.org/2000/svg" xmlns:xlink="http://www.w3.org/1999/xlink" x="0px" y="0px"
	 viewBox="0 0 100 100" style="enable-background:new 0 0 100 100;" xml:space="preserve">
<g>
	<path d="M43.4,2.2c0,0.3,0,0.5,0,0.8c0,3.7,0,7.4,0,11.1c0,0.6-0.2,0.8-0.8,1c-13,3.4-22,11.3-26.4,24.1c-1.4,4.2-1.9,8.5-1.7,12.9
		C15.5,67.4,25.5,80.1,40,84.4c12.9,3.9,24.6,0.9,34.7-8c0.3-0.2,0.5-0.5,0.7-0.7c-1.6-1.6-3.1-3.2-4.6-4.8
		c-2.8,2.6-5.9,4.7-9.4,6.1c-3.5,1.4-7.1,2.1-11,2.1c0-5.6,0-11.1,0-16.8c-4.9,0-9.8,0-14.8,0c0.2-0.6,0.2-1,0.4-1.3
		c4.5-8.9,9-17.9,13.5-26.8c0.6-1.2,0.8-2.5,0.8-3.9c0-9.2,0-18.4,0-27.6c0-0.3,0-0.6,0-1.1c0.9,0,1.7,0,2.6,0
		c15,0.9,27,7.4,36.2,19.1c5.2,6.6,8.2,14.2,9.4,22.5c3.6,25.3-12.9,49-37.8,54.3c-4.6,1-9.3,1.1-14,0.8c-6.7-0.4-13-2.1-18.9-5.3
		C15.9,86.7,7.8,77,3.8,64.1c-1.1-3.6-1.6-7.2-1.9-11c-0.5-8.9,1-17.4,5.2-25.3c6.7-12.7,17-21,30.9-24.8c1.5-0.4,3.1-0.6,4.7-0.9
		C42.9,2.1,43.1,2.2,43.4,2.2z M67.4,39.9c3.9,0,7.1-3.2,7.1-7c0-3.9-3.2-7.1-7.1-7.1c-3.9,0-7.1,3.2-7.1,7.1
		C60.3,36.7,63.5,39.9,67.4,39.9z"/>
</g>
</svg>
