<?xml version="1.0" encoding="utf-8"?>
<!-- Generator: Adobe Illustrator 23.0.5, SVG Export Plug-In . SVG Version: 6.00 Build 0)  -->
<svg version="1.1" id="Layer_1" xmlns="http://www.w3.org/2000/svg" xmlns:xlink="http://www.w3.org/1999/xlink" x="0px" y="0px"
	 viewBox="0 0 126.6 33.9" style="enable-background:new 0 0 126.6 33.9;" xml:space="preserve">
<style type="text/css">
	.st0{fill:#222222;}
	.st1{fill:#4D4D4D;}
	.st2{fill:#FFFFFF;}
</style>
<g>
	<g>
		<g>
			<g>
				<path class="st0" d="M11.2,6.3c-0.8,0.5-1.9,1.6-2.4,2.4c-0.6,0.9-1,1.8-1.3,3C7.1,12.8,7,14,7,15.2c0,1.3,0.2,2.4,0.5,3.4
					c0.4,1,0.9,1.7,1.7,2.2c0.7,0.5,1.7,0.8,2.8,0.8c0.9,0,1.6-0.2,2.3-0.5c0.6-0.3,1.2-0.7,1.6-1.3c0.4-0.5,0.7-1.2,0.9-1.9
					l0.2-0.8h-5.4l0.9-4.3h10.1l-3,13.2h-3.9l1.2-5.8l0.5,0.6c-0.4,1.2-0.9,2.2-1.6,3c-0.6,0.8-1.4,1.5-2.3,1.9
					c-0.9,0.4-2,0.6-3.2,0.6c-1.7,0-3.2-0.4-4.6-1.3c-1.4-0.9-2.4-2.1-3.3-3.7c-0.8-1.6-1.2-3.4-1.2-5.6c0,0,0-0.1,0-0.1
					c0,0,0,0,0,0C5,7.1,11.2,6.3,11.2,6.3z"/>
				<g>
					<path class="st1" d="M1.1,14.2c0,0,1.6-6.9,8.9-8.9c0,0,4.9-1.6,8.6,2.4l-1.6,2h7.6L22.2,0l-1,3.2c0,0-5.9-5.3-13.5-0.8
						C7.7,2.4,1.1,5.7,1.1,14.2z"/>
				</g>
			</g>
		</g>
		<path id="XMLID_150_" class="st0" d="M92.1,20.2c-0.2,0.2-0.4,0.4-0.6,0.6c-0.8,0.8-1.7,1.4-2.8,1.6c-1,0.2-1.5-0.1-1.8-1.1
			c-0.2-0.7-0.3-1.3-0.2-2c0.1-0.9,0.2-1.7,0.5-2.5c0.5-1.2,1.1-2.2,2.1-3.1c0.4-0.3,0.8-0.6,1.3-0.5c0.7,0.1,1.3,0.4,1.7,1
			c0.3,0.4,0.6,1,0.9,1.4l0,0c0.3-1.3,0.6-2.5,0.9-3.8c0-0.1,0-0.3-0.1-0.4c-0.6-0.8-1.3-1.5-2.2-1.8c-1.6-0.5-3.1-0.3-4.5,0.6
			c-1.2,0.7-2.2,1.7-3.1,3c-1.1,1.6-1.8,3.5-2,5.5c-0.1,1.5-0.1,3.1,0.5,4.4c0.9,2,2.3,3.1,4.4,3.2c1.4,0.1,2.5-0.4,3.7-1.1
			c0.1-0.1,0.1-0.2,0.1-0.3c0.3-1.2,0.5-2.4,0.8-3.5C91.9,20.9,92,20.5,92.1,20.2L92.1,20.2C92.1,20.1,92.1,20.1,92.1,20.2
			C92.1,20.1,92.1,20.2,92.1,20.2z"/>
		<path id="XMLID_149_" class="st0" d="M71,26.2c0-0.1,0.1-0.1,0.1-0.2c0.2-0.9,0.4-1.7,0.6-2.6c0.5-2.3,1.2-4.6,1.7-7
			c0.1-0.4,0.2-0.7,0.5-1c0.5-0.5,1.1-1,1.7-1.6c0.2-0.1,0.5-0.2,0.7-0.3c0.7-0.1,1.4,0.6,1.2,1.4c-0.1,0.6-0.3,1.2-0.4,1.8
			c-0.6,2.6-1.2,5.3-1.9,7.9c-0.1,0.6-0.3,1.1-0.4,1.7c-0.1,0.7-0.1,1.5-0.2,2.3c0,0.3-0.1,0.6-0.1,0.9c0.3,1.8,1.3,2.9,2.9,3.5
			c0.7,0.3,1.5,0.2,2.2,0.1c1.2-0.2,2.2-0.7,3.1-1.6c0.2-0.1,0.2-0.3,0.1-0.6c-0.3-0.8-0.5-1.7-0.8-2.5c0-0.1-0.1-0.1-0.1-0.3
			c-0.2,0.1-0.3,0.3-0.5,0.4c-0.7,0.4-1.5,0.2-1.9-0.5c-0.3-0.7-0.4-1.4-0.3-2.1c0.2-0.8,0.4-1.7,0.6-2.5c0.6-2.5,1.2-5,1.8-7.5
			c0.2-0.7,0.3-1.5,0.3-2.3c-0.1-1.5-0.7-2.7-1.8-3.5c-0.3-0.2-0.7-0.4-1.1-0.5c-0.7-0.2-1.4-0.1-2.2,0.1c-0.7,0.1-1.4,0.5-2.1,0.9
			c0.1-0.4,0.1-0.7,0.2-1.1c-1.5,0-2.9,0-4.4,0c-1.4,5.5-2.7,11.1-4,16.7C68.1,26.2,69.6,26.2,71,26.2z"/>
		<path id="XMLID_148_" class="st0" d="M37.2,9.4c-0.3,1.2-0.5,2.4-0.9,3.7c0.7,0,1.4,0,2,0c-1,4.4-2,8.8-3.1,13.1
			c1.5,0,2.9,0,4.4,0c1.2-4.3,2.2-8.8,3.2-13.1c1,0,1.8,0,2.8,0c0.3-1.2,0.6-2.4,0.9-3.7c-1,0-1.8,0-2.8,0c0.5-2.5,1.2-4.8,1.7-7.3
			c-1.5,0-2.9,0-4.4,0c-0.5,2.4-1.2,4.9-1.7,7.3C38.5,9.4,37.9,9.4,37.2,9.4z"/>
		<path id="XMLID_147_" class="st0" d="M43.9,26.2c1.5,0,2.9,0,4.4,0c2-8.4,4-16.8,6-25.2c-1.5,0-3,0-4.5,0
			C47.9,9.4,45.9,17.8,43.9,26.2z"/>
		<g id="XMLID_146_">
			<path class="st2" d="M102.9,20.8C102.9,20.9,102.9,20.9,102.9,20.8C102.9,20.9,102.9,20.9,102.9,20.8
				C102.9,20.9,103,20.9,102.9,20.8C103,20.9,102.9,20.9,102.9,20.8z"/>
		</g>
		<path id="XMLID_145_" class="st0" d="M62.3,10.8c0.1-0.5,0.3-1,0.4-1.4c1.4,0,2.9,0,4.4,0c-0.1,0.6-0.3,1.1-0.4,1.6
			c-0.7,2.8-1.3,5.6-2,8.4c-0.1,0.7-0.3,1.3-0.5,1.9c-0.1,0.6,0.1,1,0.7,1c0.2,0,0.5-0.1,0.7-0.1c0.1,0,0.1,0,0.3-0.1
			c-0.1,0.4-0.2,0.9-0.3,1.3c-0.1,0.5-0.3,1-0.4,1.5c0,0.1-0.1,0.2-0.1,0.3c-1,0.7-2,1.2-3.1,1.1c-1,0-1.7-0.5-2.3-1.3
			c-0.1-0.1-0.1-0.1-0.2-0.3c-0.3,0.2-0.5,0.4-0.7,0.5c-0.8,0.5-1.6,0.9-2.6,0.8c-1.6-0.1-2.7-1-3.4-2.5c-0.5-1.3-0.7-2.8-0.5-4.3
			c0.1-2.5,1-4.6,2.2-6.7c0.9-1.4,2-2.6,3.4-3.3c1.2-0.6,2.3-0.7,3.5,0C61.5,9.8,61.9,10.3,62.3,10.8z M56.2,19.9
			c0.1,0.4,0.1,0.8,0.1,1.3c0.2,1.2,1,1.6,1.8,0.9c0.3-0.2,0.5-0.5,0.8-0.8c0.7-1,1.2-2.1,1.6-3.2c0.3-0.7,0.4-1.6,0.5-2.4
			c0-0.6,0-1.2-0.2-1.8c-0.2-0.7-0.7-0.9-1.4-0.7c-0.4,0.1-0.7,0.4-1,0.7C56.9,15.4,56.3,17.6,56.2,19.9z"/>
		<path id="XMLID_144_" class="st0" d="M35.7,16c0,2.1-0.5,4-1.5,5.7c-0.9,1.6-2,3-3.6,4c-1.3,0.8-2.7,1.1-4.2,0.7
			c-1.9-0.5-3.1-1.9-3.7-3.9c-0.6-2.4-0.4-4.7,0.5-7c0.5-1.3,1.2-2.5,2-3.4c1.2-1.3,2.6-2.4,4.4-2.7c2.5-0.4,5,1.2,5.7,4.1
			c0.1,0.4,0.1,0.7,0.2,1.1C35.6,15,35.6,15.5,35.7,16z M31.7,15.7c0-0.8-0.1-1.4-0.3-1.9c-0.2-0.5-0.7-0.7-1.2-0.7
			c-0.2,0.1-0.3,0.1-0.5,0.2c-0.7,0.4-1.2,1-1.6,1.6c-0.7,1.3-1.3,2.7-1.5,4.2c-0.1,0.7-0.1,1.6,0.1,2.3c0.3,1,1,1.3,1.8,0.8
			c0.4-0.2,0.8-0.5,1.1-0.9C31,19.7,31.6,17.7,31.7,15.7z"/>
		<path id="XMLID_143_" class="st0" d="M102.9,21c-0.1,0.2-0.1,0.4-0.1,0.7c-0.3,1.2-0.5,2.4-0.8,3.5c-0.1,0.2-0.1,0.4-0.3,0.5
			c-1.4,0.9-3,1-4.6,0.4c-0.7-0.2-1.3-0.6-1.8-1.1c-0.8-0.7-1.4-1.7-1.6-2.8c-0.5-2-0.3-4,0.3-6c0.8-2.5,2.2-4.5,4.4-5.8
			c1.1-0.7,2.3-1.1,3.6-1c1.1,0.1,2,0.4,2.9,1.1c0.7,0.6,1.2,1.5,1.3,2.5c0.3,1.9-0.3,3.7-1.5,5.1c-1.1,1.3-2.3,2.2-3.9,2.5
			c-1,0.2-1.9,0.2-2.8,0c-0.1,0-0.1,0-0.3-0.1c-0.1,0.9,0.6,1.9,1.4,2.1c0.3,0.1,0.7,0,1.2-0.1c1-0.1,1.8-0.7,2.5-1.3
			C102.7,21.1,102.8,21.1,102.9,21C102.8,21,102.9,21,102.9,21z M97.8,17.5c0.1,0,0.1,0.1,0.1,0.1c1.1,0.2,2.2,0.1,3.2-0.4
			c0.7-0.4,1.2-1,1.4-1.7c0.3-0.7,0.1-1.4-0.4-1.9c-0.4-0.4-1-0.4-1.6-0.1c-0.1,0-0.1,0.1-0.1,0.1c-0.5,0.4-1,0.9-1.4,1.4
			C98.5,15.6,98.1,16.5,97.8,17.5z"/>
		<path id="XMLID_142_" class="st0" d="M37.2,9.4c0.7,0,1.4,0,2,0c0.5-2.4,1.2-4.9,1.7-7.3c1.5,0,2.9,0,4.4,0
			c-0.5,2.4-1.1,4.8-1.7,7.3c1,0,1.8,0,2.8,0c-0.3,1.3-0.6,2.4-0.9,3.7c-1,0-1.8,0-2.8,0c-1,4.3-2,8.8-3.1,13.1c-1.5,0-2.9,0-4.4,0
			c1-4.3,2-8.7,3.1-13.1c-0.7,0-1.4,0-2,0C36.6,11.8,36.9,10.7,37.2,9.4z"/>
		<path id="XMLID_141_" class="st0" d="M43.9,26.2c2-8.4,4-16.8,6-25.2c1.5,0,3,0,4.5,0c-2,8.4-4.1,16.8-6.1,25.2
			C46.9,26.2,45.4,26.2,43.9,26.2z"/>
		<path id="XMLID_140_" class="st0" d="M92.1,20.2C92.1,20.2,92.1,20.1,92.1,20.2C92.1,20.1,92.1,20.1,92.1,20.2L92.1,20.2
			L92.1,20.2z"/>
		<g id="XMLID_139_">
			<path class="st2" d="M102.9,20.8C102.9,20.9,103,20.9,102.9,20.8C103,20.9,102.9,20.9,102.9,20.8
				C102.9,20.9,102.9,20.9,102.9,20.8C102.9,20.9,102.9,20.9,102.9,20.8z"/>
		</g>
		<g id="XMLID_138_">
			<path class="st2" d="M110.1,12.1L110.1,12.1C110.2,12,110.2,12.1,110.1,12.1z"/>
		</g>
		<g id="XMLID_135_">
			<g>
				<g>
					<path id="XMLID_137_" class="st0" d="M119.2,24.1c0,1.4-1,2.4-2.2,2.4c-1.2,0-2.2-1-2.2-2.4c0-1.3,1-2.4,2.3-2.3
						C118.3,21.7,119.2,22.7,119.2,24.1z M118.7,24c0-1.1-0.9-2.1-2-1.9c-0.8,0.2-1.3,0.8-1.3,1.7c0,0.6,0.2,1.2,0.6,1.6
						c0.4,0.4,1.2,0.6,1.7,0.3C118.4,25.5,118.7,24.9,118.7,24z"/>
					<path id="XMLID_136_" class="st0" d="M116.7,25.3c-0.2,0-0.3,0-0.5,0c0-0.8,0-1.6,0-2.4c0.5-0.1,0.9-0.1,1.3,0
						c0.4,0.1,0.6,0.6,0.3,0.9c-0.1,0.1-0.2,0.2-0.3,0.3c0.5,0.2,0.4,0.7,0.5,1.2c-0.2,0-0.3,0-0.5,0c0,0-0.1-0.1-0.1-0.1
						c0-0.1-0.1-0.3-0.1-0.5c-0.1-0.3-0.2-0.4-0.5-0.4c-0.1,0-0.2,0-0.3,0C116.7,24.7,116.7,25,116.7,25.3z M116.7,24
						c0.2,0,0.3,0,0.5-0.1c0.1,0,0.2-0.2,0.2-0.3c0-0.1-0.1-0.2-0.2-0.3c-0.2,0-0.3,0-0.5,0C116.7,23.5,116.7,23.7,116.7,24z"/>
				</g>
			</g>
		</g>
		<g>
			<path class="st1" d="M118.2,21.9l7.6-4.6l-7.3-6.4l0.8,3.7c0,0-2.3-0.8-4.6,0.1c0,0-3.9,1.4-5.9,4.7l-1.9,7.6h4.6l1.1-4.1
				c0,0,1.8-3.9,4.5-4.6c0,0,1.4-0.1,2.1,0.5L118.2,21.9z"/>
		</g>
		<path class="st0" d="M107.4,9.5l-0.7,4.3h3.3l-0.6,2.7c0,0,2.3-2.4,5.3-3.2c0,0,0,0,0,0l0.8-3.8h0H107.4z"/>
	</g>
</g>
</svg>
