<?xml version="1.0" encoding="utf-8"?>
<!-- Generator: Adobe Illustrator 23.0.5, SVG Export Plug-In . SVG Version: 6.00 Build 0)  -->
<svg version="1.1" id="Layer_1" xmlns="http://www.w3.org/2000/svg" xmlns:xlink="http://www.w3.org/1999/xlink" x="0px" y="0px"
	 viewBox="0 0 50 50" style="enable-background:new 0 0 50 50;" xml:space="preserve">
<style type="text/css">
	.st0{fill:#FFFFFF;}
	.st1{fill:#222222;}
	.st2{fill:#4D4D4D;}
</style>
<g>
	<path class="st0" d="M49.8,25c0,10-5.9,18.6-14.4,22.5c-3.1,1.4-6.6,2.2-10.3,2.2C11.3,49.8,0.2,38.7,0.2,25S11.3,0.2,25,0.2
		c5.6,0,10.8,1.9,15,5C45.9,9.8,49.8,17,49.8,25z"/>
	<g>
		<g>
			<path class="st1" d="M22.3,14.7c-1.1,0.7-2.7,2.3-3.6,3.5c-0.8,1.2-1.4,2.7-1.9,4.3c-0.4,1.6-0.7,3.4-0.7,5.2
				c0,1.9,0.3,3.5,0.8,4.9c0.5,1.4,1.3,2.5,2.4,3.2c1.1,0.7,2.4,1.1,4,1.1c1.3,0,2.4-0.2,3.3-0.7c0.9-0.4,1.7-1,2.3-1.8
				c0.6-0.8,1-1.7,1.3-2.7l0.3-1.2h-7.9l1.3-6.2h14.7l-4.4,19.3h-5.7l1.7-8.5l0.7,0.9c-0.6,1.8-1.4,3.2-2.3,4.4
				c-0.9,1.2-2.1,2.1-3.4,2.7c-1.3,0.6-2.9,0.9-4.7,0.9c-2.5,0-4.7-0.6-6.7-1.9c-2-1.3-3.6-3.1-4.7-5.4c-1.2-2.3-1.7-5-1.8-8.2
				c0-0.1,0-0.1,0-0.2c0,0,0,0,0,0C13.3,15.9,22.3,14.7,22.3,14.7z"/>
			<g>
				<path class="st2" d="M7.6,26.2c0,0,2.4-10,13-13c0,0,7.2-2.4,12.5,3.5l-2.4,2.9h11L38.3,5.5l-1.4,4.7c0,0-8.6-7.7-19.7-1.2
					C17.2,9.1,7.6,13.8,7.6,26.2z"/>
			</g>
		</g>
	</g>
</g>
</svg>
