<?xml version="1.0" encoding="utf-8"?>
<!-- Generator: Adobe Illustrator 23.0.5, SVG Export Plug-In . SVG Version: 6.00 Build 0)  -->
<svg version="1.1" id="Layer_1" xmlns="http://www.w3.org/2000/svg" xmlns:xlink="http://www.w3.org/1999/xlink" x="0px" y="0px"
	 viewBox="0 0 100 100" style="enable-background:new 0 0 100 100;" xml:space="preserve">
<style type="text/css">
	.st0{fill:#39B54A;}
	.st1{fill:#FFFFFF;}
</style>
<g>
	<g>
		<g>
			<path class="st0" d="M50.2,97.7c-12.8,0-24.8-5-33.8-14c-9-9-14-21-14-33.8s5-24.8,14-33.8c9-9,21-14,33.8-14
				c12.8,0,24.8,5,33.8,14c9,9,14,21,14,33.8s-5,24.8-14,33.8C75,92.7,63,97.7,50.2,97.7z M50.2,4.1C24.9,4.1,4.4,24.6,4.4,49.9
				c0,25.3,20.6,45.8,45.8,45.8C75.5,95.7,96,75.2,96,49.9C96,24.6,75.5,4.1,50.2,4.1z"/>
		</g>
		<g>
			<path class="st0" d="M50.2,95.2c-12.1,0-23.5-4.7-32-13.3C9.6,73.4,4.9,62,4.9,49.9c0-12.1,4.7-23.5,13.3-32
				c8.6-8.6,19.9-13.3,32-13.3c12.1,0,23.5,4.7,32,13.3c8.6,8.6,13.3,19.9,13.3,32c0,12.1-4.7,23.5-13.3,32
				C73.7,90.5,62.3,95.2,50.2,95.2z M50.2,5.1C25.5,5.1,5.4,25.2,5.4,49.9c0,24.7,20.1,44.8,44.8,44.8C74.9,94.7,95,74.6,95,49.9
				C95,25.2,74.9,5.1,50.2,5.1z"/>
		</g>
		<g>
			<path class="st0" d="M50.2,81.9c-17.6,0-32-14.4-32-32c0-17.6,14.4-32,32-32c17.6,0,32,14.4,32,32C82.2,67.6,67.9,81.9,50.2,81.9
				z M50.2,18.1c-17.6,0-31.8,14.3-31.8,31.8s14.3,31.8,31.8,31.8C67.8,81.7,82,67.5,82,49.9S67.8,18.1,50.2,18.1z"/>
		</g>
		<g>
			<path class="st0" d="M50.2,80.5c-16.9,0-30.6-13.7-30.6-30.6c0-16.9,13.7-30.6,30.6-30.6c16.9,0,30.6,13.7,30.6,30.6
				C80.8,66.8,67.1,80.5,50.2,80.5z M50.2,19.9c-16.6,0-30.1,13.5-30.1,30.1c0,16.6,13.5,30.1,30.1,30.1c16.6,0,30.1-13.5,30.1-30.1
				C80.3,33.4,66.8,19.9,50.2,19.9z"/>
		</g>
		<g>
			<path class="st0" d="M50,77c-0.2,0-0.4,0-0.7,0l0-0.3c0.2,0,0.4,0,0.6,0L50,77z M50.6,77l0-0.3c0.2,0,0.4,0,0.6,0l0,0.3
				C51,77,50.8,77,50.6,77z M48.7,76.9c-0.2,0-0.4,0-0.7,0l0-0.3c0.2,0,0.4,0,0.6,0L48.7,76.9z M51.9,76.9l0-0.3c0.2,0,0.4,0,0.6,0
				l0,0.3C52.4,76.9,52.1,76.9,51.9,76.9z M47.4,76.8c-0.2,0-0.4,0-0.6-0.1l0-0.3c0.2,0,0.4,0.1,0.6,0.1L47.4,76.8z M53.2,76.8
				l0-0.3c0.2,0,0.4,0,0.6-0.1l0,0.3C53.7,76.8,53.4,76.8,53.2,76.8z M46.1,76.6c-0.2,0-0.4-0.1-0.6-0.1l0.1-0.3
				c0.2,0,0.4,0.1,0.6,0.1L46.1,76.6z M54.5,76.6l-0.1-0.3c0.2,0,0.4-0.1,0.6-0.1l0.1,0.3C54.9,76.6,54.7,76.6,54.5,76.6z
				 M44.8,76.4c-0.2,0-0.4-0.1-0.6-0.1l0.1-0.3c0.2,0,0.4,0.1,0.6,0.1L44.8,76.4z M55.8,76.4l-0.1-0.3c0.2,0,0.4-0.1,0.6-0.1
				l0.1,0.3C56.2,76.3,56,76.4,55.8,76.4z M43.5,76.1c-0.2-0.1-0.4-0.1-0.6-0.2l0.1-0.3c0.2,0.1,0.4,0.1,0.6,0.2L43.5,76.1z
				 M57.1,76.1L57,75.8c0.2-0.1,0.4-0.1,0.6-0.2l0.1,0.3C57.5,76,57.3,76.1,57.1,76.1z M42.2,75.8c-0.2-0.1-0.4-0.1-0.6-0.2l0.1-0.3
				c0.2,0.1,0.4,0.1,0.6,0.2L42.2,75.8z M58.3,75.8l-0.1-0.3c0.2-0.1,0.4-0.1,0.6-0.2l0.1,0.3C58.7,75.6,58.5,75.7,58.3,75.8z
				 M41,75.3c-0.2-0.1-0.4-0.2-0.6-0.2l0.1-0.3c0.2,0.1,0.4,0.2,0.6,0.2L41,75.3z M59.6,75.3L59.5,75c0.2-0.1,0.4-0.1,0.6-0.2
				l0.1,0.3C60,75.2,59.8,75.3,59.6,75.3z M39.8,74.9c-0.2-0.1-0.4-0.2-0.6-0.3l0.1-0.3c0.2,0.1,0.4,0.2,0.6,0.3L39.8,74.9z
				 M60.8,74.9l-0.1-0.3c0.2-0.1,0.4-0.2,0.6-0.3l0.1,0.3C61.2,74.7,61,74.8,60.8,74.9z M38.6,74.3c-0.2-0.1-0.4-0.2-0.6-0.3
				l0.1-0.3c0.2,0.1,0.4,0.2,0.6,0.3L38.6,74.3z M62,74.3L61.8,74c0.2-0.1,0.4-0.2,0.6-0.3l0.1,0.3C62.4,74.1,62.2,74.2,62,74.3z
				 M63.1,73.7L63,73.5c0.2-0.1,0.4-0.2,0.6-0.3l0.2,0.3C63.5,73.5,63.3,73.6,63.1,73.7z M37.4,73.7c-0.2-0.1-0.4-0.2-0.6-0.3
				l0.2-0.3c0.2,0.1,0.4,0.2,0.6,0.3L37.4,73.7z M64.3,73.1l-0.2-0.3c0.2-0.1,0.4-0.2,0.5-0.3l0.2,0.3C64.6,72.9,64.5,73,64.3,73.1z
				 M36.3,73.1c-0.2-0.1-0.4-0.2-0.6-0.3l0.2-0.3c0.2,0.1,0.4,0.2,0.6,0.3L36.3,73.1z M65.4,72.4l-0.2-0.3c0.2-0.1,0.4-0.2,0.5-0.4
				l0.2,0.3C65.7,72.2,65.6,72.3,65.4,72.4z M35.2,72.4c-0.2-0.1-0.4-0.2-0.5-0.4l0.2-0.3c0.2,0.1,0.4,0.2,0.5,0.4L35.2,72.4z
				 M66.4,71.7l-0.2-0.3c0.2-0.1,0.3-0.3,0.5-0.4l0.2,0.3C66.8,71.4,66.6,71.5,66.4,71.7z M34.1,71.6c-0.2-0.1-0.3-0.3-0.5-0.4
				l0.2-0.3c0.2,0.1,0.3,0.3,0.5,0.4L34.1,71.6z M67.5,70.9l-0.2-0.3c0.2-0.1,0.3-0.3,0.5-0.4l0.2,0.2
				C67.8,70.6,67.6,70.7,67.5,70.9z M33.1,70.8c-0.2-0.1-0.3-0.3-0.5-0.4l0.2-0.2c0.2,0.1,0.3,0.3,0.5,0.4L33.1,70.8z M68.5,70
				l-0.2-0.2c0.2-0.1,0.3-0.3,0.5-0.4l0.2,0.2C68.8,69.7,68.6,69.9,68.5,70z M32.1,70c-0.2-0.1-0.3-0.3-0.5-0.4l0.2-0.2
				c0.2,0.1,0.3,0.3,0.5,0.4L32.1,70z M69.4,69.1l-0.2-0.2c0.2-0.2,0.3-0.3,0.5-0.5l0.2,0.2C69.7,68.8,69.6,69,69.4,69.1z
				 M31.1,69.1c-0.2-0.2-0.3-0.3-0.5-0.5l0.2-0.2c0.1,0.2,0.3,0.3,0.5,0.5L31.1,69.1z M70.3,68.2l-0.2-0.2c0.1-0.2,0.3-0.3,0.4-0.5
				l0.2,0.2C70.6,67.8,70.5,68,70.3,68.2z M30.2,68.2c-0.1-0.2-0.3-0.3-0.4-0.5l0.2-0.2c0.1,0.2,0.3,0.3,0.4,0.5L30.2,68.2z
				 M71.2,67.2L70.9,67c0.1-0.2,0.3-0.3,0.4-0.5l0.3,0.2C71.5,66.9,71.3,67,71.2,67.2z M29.4,67.2c-0.1-0.2-0.3-0.3-0.4-0.5l0.3-0.2
				c0.1,0.2,0.3,0.3,0.4,0.5L29.4,67.2z M72,66.2L71.7,66c0.1-0.2,0.3-0.3,0.4-0.5l0.3,0.2C72.3,65.8,72.1,66,72,66.2z M28.5,66.2
				c-0.1-0.2-0.3-0.3-0.4-0.5l0.3-0.2c0.1,0.2,0.3,0.3,0.4,0.5L28.5,66.2z M72.8,65.1l-0.3-0.2c0.1-0.2,0.2-0.4,0.4-0.5l0.3,0.2
				C73,64.7,72.9,64.9,72.8,65.1z M27.8,65.1c-0.1-0.2-0.2-0.4-0.4-0.5l0.3-0.2c0.1,0.2,0.2,0.4,0.4,0.5L27.8,65.1z M73.5,64
				l-0.3-0.2c0.1-0.2,0.2-0.4,0.3-0.6l0.3,0.2C73.7,63.6,73.6,63.8,73.5,64z M27.1,64c-0.1-0.2-0.2-0.4-0.3-0.6l0.3-0.2
				c0.1,0.2,0.2,0.4,0.3,0.6L27.1,64z M74.1,62.9l-0.3-0.2c0.1-0.2,0.2-0.4,0.3-0.6l0.3,0.2C74.3,62.5,74.2,62.7,74.1,62.9z
				 M26.4,62.9c-0.1-0.2-0.2-0.4-0.3-0.6l0.3-0.2c0.1,0.2,0.2,0.4,0.3,0.6L26.4,62.9z M25.8,61.7c-0.1-0.2-0.2-0.4-0.3-0.6l0.3-0.1
				c0.1,0.2,0.2,0.4,0.3,0.6L25.8,61.7z M74.7,61.7l-0.3-0.1c0.1-0.2,0.2-0.4,0.3-0.6l0.3,0.1C74.9,61.3,74.8,61.5,74.7,61.7z
				 M25.3,60.5c-0.1-0.2-0.2-0.4-0.3-0.6l0.3-0.1c0.1,0.2,0.2,0.4,0.2,0.6L25.3,60.5z M75.3,60.5L75,60.4c0.1-0.2,0.2-0.4,0.2-0.6
				l0.3,0.1C75.5,60.1,75.4,60.3,75.3,60.5z M24.8,59.3c-0.1-0.2-0.2-0.4-0.2-0.6l0.3-0.1c0.1,0.2,0.1,0.4,0.2,0.6L24.8,59.3z
				 M75.8,59.3l-0.3-0.1c0.1-0.2,0.1-0.4,0.2-0.6l0.3,0.1C75.9,58.9,75.9,59.1,75.8,59.3z M24.3,58.1c-0.1-0.2-0.1-0.4-0.2-0.6
				l0.3-0.1c0.1,0.2,0.1,0.4,0.2,0.6L24.3,58.1z M76.2,58.1L75.9,58c0.1-0.2,0.1-0.4,0.2-0.6l0.3,0.1C76.3,57.7,76.3,57.9,76.2,58.1
				z M24,56.8c-0.1-0.2-0.1-0.4-0.2-0.6l0.3-0.1c0.1,0.2,0.1,0.4,0.2,0.6L24,56.8z M76.6,56.8l-0.3-0.1c0.1-0.2,0.1-0.4,0.2-0.6
				l0.3,0.1C76.7,56.4,76.6,56.6,76.6,56.8z M23.7,55.6c0-0.2-0.1-0.4-0.1-0.6l0.3-0.1c0,0.2,0.1,0.4,0.1,0.6L23.7,55.6z M76.9,55.6
				l-0.3-0.1c0-0.2,0.1-0.4,0.1-0.6l0.3,0.1C77,55.1,76.9,55.3,76.9,55.6z M23.4,54.3c0-0.2-0.1-0.4-0.1-0.6l0.3,0
				c0,0.2,0.1,0.4,0.1,0.6L23.4,54.3z M77.1,54.3l-0.3-0.1c0-0.2,0.1-0.4,0.1-0.6l0.3,0C77.2,53.8,77.2,54.1,77.1,54.3z M23.2,53
				c0-0.2,0-0.4-0.1-0.6l0.3,0c0,0.2,0,0.4,0.1,0.6L23.2,53z M77.3,53l-0.3,0c0-0.2,0-0.4,0.1-0.6l0.3,0
				C77.4,52.5,77.3,52.8,77.3,53z M23.1,51.7c0-0.2,0-0.4,0-0.7l0.3,0c0,0.2,0,0.4,0,0.6L23.1,51.7z M77.4,51.7l-0.3,0
				c0-0.2,0-0.4,0-0.6l0.3,0C77.5,51.2,77.5,51.5,77.4,51.7z M23,50.4c0-0.2,0-0.4,0-0.7l0.3,0c0,0.2,0,0.4,0,0.6L23,50.4z
				 M77.5,50.4l-0.3,0c0-0.2,0-0.4,0-0.6l0,0h0.3l0,0C77.5,49.9,77.5,50.2,77.5,50.4z M23.4,49.1l-0.3,0c0-0.2,0-0.4,0-0.7l0.3,0
				C23.4,48.7,23.4,48.9,23.4,49.1z M77.2,49c0-0.2,0-0.4,0-0.6l0.3,0c0,0.2,0,0.4,0,0.7L77.2,49z M23.4,47.8l-0.3,0
				c0-0.2,0-0.4,0.1-0.7l0.3,0C23.5,47.4,23.4,47.6,23.4,47.8z M77.1,47.7c0-0.2,0-0.4-0.1-0.6l0.3,0c0,0.2,0,0.4,0.1,0.7L77.1,47.7
				z M23.5,46.5l-0.3,0c0-0.2,0.1-0.4,0.1-0.6l0.3,0C23.6,46.1,23.6,46.3,23.5,46.5z M77,46.5c0-0.2-0.1-0.4-0.1-0.6l0.3,0
				c0,0.2,0.1,0.4,0.1,0.6L77,46.5z M23.7,45.2l-0.3-0.1c0-0.2,0.1-0.4,0.1-0.6l0.3,0.1C23.8,44.8,23.8,45,23.7,45.2z M76.8,45.2
				c0-0.2-0.1-0.4-0.1-0.6l0.3-0.1c0,0.2,0.1,0.4,0.1,0.6L76.8,45.2z M24,44l-0.3-0.1c0-0.2,0.1-0.4,0.1-0.6l0.3,0.1
				C24.1,43.6,24,43.8,24,44z M76.6,43.9c0-0.2-0.1-0.4-0.1-0.6l0.3-0.1c0.1,0.2,0.1,0.4,0.1,0.6L76.6,43.9z M24.3,42.7L24,42.6
				c0.1-0.2,0.1-0.4,0.2-0.6l0.3,0.1C24.4,42.3,24.3,42.5,24.3,42.7z M76.3,42.7c-0.1-0.2-0.1-0.4-0.2-0.6l0.3-0.1
				c0.1,0.2,0.1,0.4,0.2,0.6L76.3,42.7z M24.6,41.5l-0.3-0.1c0.1-0.2,0.1-0.4,0.2-0.6l0.3,0.1C24.8,41.1,24.7,41.3,24.6,41.5z
				 M75.9,41.4c-0.1-0.2-0.1-0.4-0.2-0.6l0.3-0.1c0.1,0.2,0.1,0.4,0.2,0.6L75.9,41.4z M25.1,40.3l-0.3-0.1c0.1-0.2,0.2-0.4,0.2-0.6
				l0.3,0.1C25.2,39.9,25.1,40.1,25.1,40.3z M75.5,40.2c-0.1-0.2-0.2-0.4-0.2-0.6l0.3-0.1c0.1,0.2,0.2,0.4,0.2,0.6L75.5,40.2z
				 M25.5,39.1l-0.3-0.1c0.1-0.2,0.2-0.4,0.3-0.6l0.3,0.1C25.7,38.7,25.6,38.9,25.5,39.1z M75,39c-0.1-0.2-0.2-0.4-0.3-0.6l0.3-0.1
				c0.1,0.2,0.2,0.4,0.3,0.6L75,39z M26.1,37.9l-0.3-0.1c0.1-0.2,0.2-0.4,0.3-0.6l0.3,0.2C26.3,37.5,26.2,37.7,26.1,37.9z
				 M74.4,37.8c-0.1-0.2-0.2-0.4-0.3-0.6l0.3-0.2c0.1,0.2,0.2,0.4,0.3,0.6L74.4,37.8z M26.7,36.7l-0.3-0.2c0.1-0.2,0.2-0.4,0.3-0.6
				l0.3,0.2C26.9,36.4,26.8,36.6,26.7,36.7z M73.8,36.7c-0.1-0.2-0.2-0.4-0.3-0.6l0.3-0.2c0.1,0.2,0.2,0.4,0.3,0.6L73.8,36.7z
				 M27.3,35.6l-0.3-0.2c0.1-0.2,0.2-0.4,0.3-0.6l0.3,0.2C27.6,35.3,27.5,35.4,27.3,35.6z M73.2,35.6c-0.1-0.2-0.2-0.4-0.3-0.5
				l0.3-0.2c0.1,0.2,0.2,0.4,0.3,0.6L73.2,35.6z M28,34.5l-0.3-0.2c0.1-0.2,0.2-0.4,0.4-0.5l0.3,0.2C28.3,34.2,28.2,34.4,28,34.5z
				 M72.5,34.5c-0.1-0.2-0.2-0.4-0.4-0.5l0.3-0.2c0.1,0.2,0.3,0.4,0.4,0.5L72.5,34.5z M28.8,33.5l-0.3-0.2c0.1-0.2,0.3-0.3,0.4-0.5
				l0.3,0.2C29.1,33.1,28.9,33.3,28.8,33.5z M71.7,33.5c-0.1-0.2-0.3-0.3-0.4-0.5l0.3-0.2c0.1,0.2,0.3,0.3,0.4,0.5L71.7,33.5z
				 M29.6,32.5l-0.3-0.2c0.1-0.2,0.3-0.3,0.4-0.5L30,32C29.9,32.2,29.7,32.3,29.6,32.5z M70.9,32.5c-0.1-0.2-0.3-0.3-0.4-0.5
				l0.2-0.2c0.1,0.2,0.3,0.3,0.4,0.5L70.9,32.5z M30.5,31.5l-0.2-0.2c0.1-0.2,0.3-0.3,0.4-0.5l0.2,0.2
				C30.7,31.2,30.6,31.4,30.5,31.5z M70.1,31.5c-0.1-0.2-0.3-0.3-0.4-0.5l0.2-0.2c0.2,0.2,0.3,0.3,0.4,0.5L70.1,31.5z M31.3,30.6
				l-0.2-0.2c0.2-0.2,0.3-0.3,0.5-0.5l0.2,0.2C31.7,30.3,31.5,30.4,31.3,30.6z M69.2,30.6c-0.2-0.2-0.3-0.3-0.5-0.4l0.2-0.2
				c0.2,0.1,0.3,0.3,0.5,0.5L69.2,30.6z M32.3,29.7l-0.2-0.2c0.2-0.1,0.3-0.3,0.5-0.4l0.2,0.2C32.6,29.4,32.4,29.6,32.3,29.7z
				 M68.2,29.7c-0.2-0.1-0.3-0.3-0.5-0.4L68,29c0.2,0.1,0.3,0.3,0.5,0.4L68.2,29.7z M33.3,28.9l-0.2-0.3c0.2-0.1,0.3-0.3,0.5-0.4
				l0.2,0.3C33.6,28.6,33.4,28.7,33.3,28.9z M67.3,28.8c-0.2-0.1-0.3-0.3-0.5-0.4l0.2-0.3c0.2,0.1,0.3,0.3,0.5,0.4L67.3,28.8z
				 M34.3,28.1l-0.2-0.3c0.2-0.1,0.4-0.3,0.5-0.4l0.2,0.3C34.6,27.8,34.5,27.9,34.3,28.1z M66.2,28c-0.2-0.1-0.3-0.3-0.5-0.4
				l0.2-0.3c0.2,0.1,0.4,0.3,0.5,0.4L66.2,28z M35.3,27.3l-0.2-0.3c0.2-0.1,0.4-0.2,0.5-0.4l0.2,0.3C35.7,27.1,35.5,27.2,35.3,27.3z
				 M65.2,27.3c-0.2-0.1-0.4-0.2-0.5-0.4l0.2-0.3c0.2,0.1,0.4,0.2,0.5,0.4L65.2,27.3z M36.4,26.6l-0.2-0.3c0.2-0.1,0.4-0.2,0.6-0.3
				l0.2,0.3C36.8,26.4,36.6,26.5,36.4,26.6z M64.1,26.6c-0.2-0.1-0.4-0.2-0.6-0.3l0.2-0.3c0.2,0.1,0.4,0.2,0.6,0.3L64.1,26.6z
				 M37.5,26l-0.2-0.3c0.2-0.1,0.4-0.2,0.6-0.3l0.1,0.3C37.9,25.8,37.7,25.9,37.5,26z M63,26c-0.2-0.1-0.4-0.2-0.6-0.3l0.1-0.3
				c0.2,0.1,0.4,0.2,0.6,0.3L63,26z M38.7,25.4l-0.1-0.3c0.2-0.1,0.4-0.2,0.6-0.3l0.1,0.3C39.1,25.2,38.9,25.3,38.7,25.4z
				 M61.8,25.4c-0.2-0.1-0.4-0.2-0.6-0.3l0.1-0.3c0.2,0.1,0.4,0.2,0.6,0.3L61.8,25.4z M39.9,24.9l-0.1-0.3c0.2-0.1,0.4-0.2,0.6-0.2
				l0.1,0.3C40.3,24.7,40.1,24.8,39.9,24.9z M60.6,24.9c-0.2-0.1-0.4-0.2-0.6-0.2l0.1-0.3c0.2,0.1,0.4,0.2,0.6,0.2L60.6,24.9z
				 M41.1,24.4L41,24.1c0.2-0.1,0.4-0.1,0.6-0.2l0.1,0.3C41.5,24.3,41.3,24.3,41.1,24.4z M59.4,24.4c-0.2-0.1-0.4-0.1-0.6-0.2
				l0.1-0.3c0.2,0.1,0.4,0.1,0.6,0.2L59.4,24.4z M42.3,24l-0.1-0.3c0.2-0.1,0.4-0.1,0.6-0.2l0.1,0.3C42.7,23.9,42.5,23.9,42.3,24z
				 M58.2,24c-0.2-0.1-0.4-0.1-0.6-0.2l0.1-0.3c0.2,0.1,0.4,0.1,0.6,0.2L58.2,24z M43.5,23.7l-0.1-0.3c0.2-0.1,0.4-0.1,0.6-0.2
				l0.1,0.3C44,23.5,43.7,23.6,43.5,23.7z M56.9,23.6c-0.2-0.1-0.4-0.1-0.6-0.2l0.1-0.3c0.2,0,0.4,0.1,0.6,0.2L56.9,23.6z
				 M44.8,23.4L44.7,23c0.2,0,0.4-0.1,0.6-0.1l0.1,0.3C45.2,23.3,45,23.3,44.8,23.4z M55.7,23.3c-0.2,0-0.4-0.1-0.6-0.1l0.1-0.3
				c0.2,0,0.4,0.1,0.6,0.1L55.7,23.3z M46.1,23.1L46,22.8c0.2,0,0.4-0.1,0.6-0.1l0,0.3C46.5,23.1,46.3,23.1,46.1,23.1z M54.4,23.1
				c-0.2,0-0.4-0.1-0.6-0.1l0-0.3c0.2,0,0.4,0.1,0.6,0.1L54.4,23.1z M47.3,23l0-0.3c0.2,0,0.4,0,0.7-0.1l0,0.3
				C47.8,22.9,47.6,22.9,47.3,23z M53.1,23c-0.2,0-0.4,0-0.6-0.1l0-0.3c0.2,0,0.4,0,0.7,0.1L53.1,23z M48.6,22.9l0-0.3
				c0.2,0,0.4,0,0.7,0l0,0.3C49.1,22.8,48.8,22.8,48.6,22.9z M51.9,22.8c-0.2,0-0.4,0-0.6,0l0-0.3c0.2,0,0.4,0,0.7,0L51.9,22.8z
				 M49.9,22.8l0-0.3c0.1,0,0.2,0,0.4,0c0.1,0,0.2,0,0.3,0l0,0.3c-0.1,0-0.2,0-0.3,0C50.1,22.8,50,22.8,49.9,22.8z"/>
		</g>
		<g>
			<path class="st0" d="M46.6,93.2l0.6-3.7l-2.7-2.6l3.7-0.5l1.7-3.4l1.7,3.4l3.7,0.5l-2.7,2.6l0.6,3.7l-3.3-1.8L46.6,93.2z
				 M49.9,90.7l2.5,1.3l-0.5-2.7l2-1.9L51.1,87l-1.2-2.5L48.7,87l-2.8,0.4l2,1.9L47.4,92L49.9,90.7z"/>
		</g>
		<g>
			<path class="st0" d="M64.2,90l-2.5-1.3L59.2,90l0.5-2.8l-2-2l2.8-0.4l1.3-2.5l1.3,2.5l2.8,0.4l-2,2L64.2,90z M61.7,88.3l2.1,1.1
				l-0.4-2.3l1.7-1.6l-2.3-0.3l-1-2.1l-1,2.1l-2.3,0.3l1.7,1.6l-0.4,2.3L61.7,88.3z"/>
		</g>
		<g>
			<path class="st0" d="M72.4,84.9L70.6,84l-1.8,0.9l0.3-1.9l-1.4-1.4l2-0.3l0.9-1.8l0.9,1.8l2,0.3L72,83L72.4,84.9z M70.6,83.8
				l1.5,0.8l-0.3-1.7l1.2-1.2l-1.7-0.2l-0.8-1.6l-0.8,1.6l-1.7,0.2l1.2,1.2l-0.3,1.7L70.6,83.8z"/>
		</g>
		<g>
			<path class="st0" d="M30.2,84.5l-1.8-0.9l-1.8,0.9l0.3-2l-1.4-1.4l2-0.3l0.9-1.8l0.9,1.8l2,0.3l-1.4,1.4L30.2,84.5z M25.9,81.3
				l1.2,1.2l-0.3,1.7l1.5-0.8l1.5,0.8l-0.3-1.7l1.2-1.2L29.2,81l-0.8-1.6L27.7,81L25.9,81.3z"/>
		</g>
		<g>
			<path class="st0" d="M40.7,90l-2.5-1.3L35.7,90l0.5-2.8l-2-2l2.8-0.4l1.3-2.5l1.3,2.5l2.8,0.4l-2,2L40.7,90z M34.9,85.4l1.7,1.6
				l-0.4,2.3l2.1-1.1l2.1,1.1l-0.4-2.3l1.7-1.6l-2.3-0.3l-1-2.1l-1,2.1L34.9,85.4z"/>
		</g>
	</g>
	<g>
		<g>
			<path class="st0" d="M21.9,26.9c-0.4,0.4-0.6,0.7-0.9,1.1c-1.2-0.9-1.8-1.4-2.9-2.3c-0.3,0.6-0.4,0.9-0.7,1.5
				c-0.3-0.2-0.4-0.3-0.7-0.5c0.5-1.2,0.8-1.8,1.3-2.9c0,0,0.1-0.1,0.1-0.1C19.6,25,20.4,25.6,21.9,26.9z"/>
			<path class="st0" d="M24.9,21c0.2,0.3,0.4,0.6,0.5,0.8c0.1,0.3,0.1,0.5,0.1,0.8c0,0.3-0.1,0.5-0.2,0.7c-0.1,0.2-0.3,0.5-0.5,0.7
				c-0.2,0.2-0.5,0.4-0.7,0.5c-0.2,0.1-0.5,0.2-0.8,0.2c-0.3,0-0.5,0-0.8-0.1c-0.3-0.1-0.5-0.3-0.8-0.5c-0.3-0.3-0.4-0.4-0.7-0.6
				c-0.3-0.3-0.5-0.5-0.6-0.8c-0.1-0.3-0.2-0.5-0.1-0.8c0-0.3,0.1-0.6,0.3-0.8c0.2-0.3,0.4-0.5,0.6-0.8c0.3-0.2,0.5-0.4,0.8-0.6
				c0.3-0.1,0.6-0.2,0.8-0.2c0.3,0,0.5,0.1,0.8,0.2c0.3,0.1,0.5,0.3,0.7,0.6C24.5,20.6,24.7,20.7,24.9,21z M23.1,21.2
				c-0.1-0.1-0.3-0.3-0.4-0.3c-0.1-0.1-0.2-0.1-0.3-0.1c-0.1,0-0.2,0-0.3,0c-0.1,0-0.2,0.1-0.3,0.2c-0.1,0.1-0.2,0.2-0.2,0.3
				c0,0.1-0.1,0.2,0,0.3c0,0.1,0.1,0.2,0.1,0.3c0.1,0.1,0.2,0.3,0.3,0.4c0.3,0.3,0.5,0.5,0.9,0.9c0.1,0.1,0.3,0.3,0.4,0.3
				c0.1,0.1,0.2,0.1,0.3,0.1c0.1,0,0.2,0,0.3,0s0.2-0.1,0.3-0.2c0.1-0.1,0.1-0.2,0.2-0.2c0-0.1,0.1-0.2,0-0.3c0-0.1-0.1-0.2-0.1-0.3
				c-0.1-0.1-0.2-0.3-0.3-0.4C23.6,21.7,23.4,21.6,23.1,21.2z"/>
			<path class="st0" d="M29,18c0.2,0.3,0.3,0.6,0.4,0.9c0.1,0.3,0.1,0.5,0,0.8c-0.1,0.2-0.2,0.5-0.3,0.7c-0.2,0.2-0.4,0.4-0.6,0.6
				c-0.3,0.2-0.5,0.3-0.8,0.4c-0.3,0.1-0.5,0.1-0.8,0.1c-0.3,0-0.5-0.1-0.8-0.2s-0.5-0.4-0.7-0.6c-0.2-0.3-0.4-0.4-0.6-0.7
				c-0.2-0.3-0.4-0.6-0.5-0.8c-0.1-0.3-0.1-0.6,0-0.8c0.1-0.3,0.2-0.5,0.3-0.8c0.2-0.2,0.4-0.5,0.7-0.7c0.3-0.2,0.6-0.4,0.9-0.4
				c0.3-0.1,0.6-0.1,0.8-0.1c0.3,0,0.5,0.1,0.8,0.3c0.2,0.2,0.5,0.4,0.7,0.7C28.7,17.5,28.8,17.7,29,18z M27.2,17.9
				c-0.1-0.2-0.2-0.3-0.3-0.4c-0.1-0.1-0.2-0.2-0.3-0.2c-0.1,0-0.2,0-0.3,0c-0.1,0-0.2,0.1-0.3,0.1c-0.1,0.1-0.2,0.2-0.2,0.2
				c-0.1,0.1-0.1,0.2-0.1,0.3c0,0.1,0,0.2,0.1,0.4c0.1,0.1,0.1,0.3,0.3,0.4c0.3,0.4,0.4,0.6,0.7,1c0.1,0.2,0.2,0.3,0.4,0.4
				c0.1,0.1,0.2,0.2,0.3,0.2c0.1,0,0.2,0,0.3,0c0.1,0,0.2-0.1,0.3-0.1c0.1-0.1,0.2-0.1,0.2-0.2c0.1-0.1,0.1-0.2,0.1-0.3
				c0-0.1,0-0.2-0.1-0.4c-0.1-0.1-0.1-0.3-0.3-0.5C27.6,18.5,27.5,18.3,27.2,17.9z"/>
			<path class="st0" d="M28.6,15.8c-0.1-0.1-0.1-0.3-0.1-0.4c0-0.1,0-0.3,0.1-0.4c0.1-0.1,0.2-0.3,0.3-0.4c0.1-0.1,0.3-0.3,0.5-0.4
				c0.2-0.1,0.4-0.2,0.6-0.2c0.2,0,0.4,0,0.5,0c0.2,0,0.3,0.1,0.4,0.2c0.1,0.1,0.2,0.2,0.3,0.3c0,0.1,0.1,0.1,0.1,0.2
				c0.1,0.1,0.1,0.3,0.1,0.4c0,0.1,0,0.3-0.1,0.4c-0.1,0.1-0.2,0.3-0.3,0.4c-0.1,0.1-0.3,0.3-0.5,0.4c-0.2,0.1-0.4,0.2-0.6,0.2
				c-0.2,0-0.3,0.1-0.5,0c-0.2,0-0.3-0.1-0.4-0.1c-0.1-0.1-0.2-0.2-0.3-0.3C28.7,16,28.7,15.9,28.6,15.8z M29.6,15.6
				c0,0,0.1,0.1,0.1,0.1c0,0,0.1,0.1,0.1,0.1c0.1,0,0.1,0,0.2,0c0.1,0,0.1,0,0.2-0.1c0.1,0,0.1-0.1,0.2-0.1c0,0,0.1-0.1,0.1-0.1
				c0-0.1,0-0.1,0-0.2c0-0.1,0-0.1,0-0.1c-0.1-0.1-0.1-0.1-0.1-0.2c0,0-0.1-0.1-0.1-0.1c0,0-0.1-0.1-0.1-0.1c-0.1,0-0.1,0-0.2,0
				c-0.1,0-0.1,0-0.2,0.1c-0.1,0-0.1,0.1-0.2,0.1c0,0-0.1,0.1-0.1,0.2c0,0.1,0,0.1,0,0.2c0,0.1,0,0.1,0.1,0.2
				C29.5,15.4,29.5,15.5,29.6,15.6z M31.9,18.2c-0.3,0-0.4,0-0.7,0.1c0.2-2,0.4-3,0.9-4.9c0.3,0,0.5,0,0.8,0
				C32.4,15.3,32.2,16.3,31.9,18.2z M32.6,16.9c-0.1-0.1-0.1-0.3-0.1-0.4c0-0.1,0-0.3,0.1-0.4c0.1-0.1,0.2-0.3,0.3-0.4
				c0.1-0.1,0.3-0.2,0.5-0.3c0.2-0.1,0.4-0.2,0.6-0.2c0.2,0,0.3,0,0.5,0c0.1,0,0.3,0.1,0.4,0.2c0.1,0.1,0.2,0.2,0.2,0.3
				c0,0.1,0.1,0.1,0.1,0.2c0.1,0.1,0.1,0.3,0.1,0.4c0,0.1,0,0.3-0.1,0.4c-0.1,0.1-0.2,0.3-0.3,0.4c-0.1,0.1-0.3,0.2-0.5,0.3
				c-0.2,0.1-0.4,0.1-0.6,0.2c-0.2,0-0.3,0-0.5,0c-0.1,0-0.3-0.1-0.4-0.2c-0.1-0.1-0.2-0.2-0.3-0.3C32.7,17,32.7,17,32.6,16.9z
				 M33.5,16.7c0,0,0.1,0.1,0.1,0.1c0,0,0.1,0.1,0.1,0.1c0.1,0,0.1,0,0.2,0c0.1,0,0.1,0,0.2,0c0.1,0,0.1-0.1,0.2-0.1
				c0,0,0.1-0.1,0.1-0.1c0,0,0-0.1,0-0.1c0,0,0-0.1-0.1-0.1c0-0.1-0.1-0.1-0.1-0.2c0,0-0.1-0.1-0.1-0.1c0,0-0.1-0.1-0.1-0.1
				c-0.1,0-0.1,0-0.2,0c-0.1,0-0.1,0-0.2,0.1c-0.1,0-0.1,0.1-0.2,0.1c0,0-0.1,0.1-0.1,0.1c0,0.1,0,0.1,0,0.2c0,0.1,0,0.1,0,0.2
				C33.5,16.6,33.5,16.6,33.5,16.7z"/>
			<path class="st0" d="M42.6,14c-0.1,0.1-0.1,0.2-0.3,0.3c-0.1,0.1-0.3,0.2-0.4,0.3c-0.2,0.1-0.4,0.2-0.6,0.3
				c-0.2,0.1-0.5,0.2-0.8,0.3c-0.4,0.1-0.7,0.1-1.1,0.1c-0.3,0-0.6-0.1-0.9-0.2c-0.3-0.1-0.5-0.3-0.7-0.6c-0.2-0.2-0.4-0.6-0.5-0.9
				c0-0.1-0.1-0.2-0.1-0.3c-0.1-0.4-0.2-0.7-0.2-1.1c0-0.3,0.1-0.6,0.3-0.9c0.2-0.3,0.4-0.5,0.7-0.7c0.3-0.2,0.6-0.4,1-0.5
				c0.4-0.1,0.8-0.2,1.2-0.2c0.3,0,0.6,0.1,0.9,0.2c0.2,0.1,0.4,0.2,0.6,0.4c0.2,0.2,0.3,0.4,0.4,0.6c-0.6,0.1-0.9,0.2-1.4,0.3
				c-0.1-0.1-0.1-0.2-0.2-0.3c-0.1-0.1-0.2-0.1-0.3-0.2c-0.1,0-0.2-0.1-0.3-0.1c-0.1,0-0.3,0-0.5,0.1c-0.2,0-0.3,0.1-0.5,0.2
				c-0.1,0.1-0.2,0.2-0.3,0.4c-0.1,0.2-0.1,0.3-0.1,0.5c0,0.2,0,0.4,0.1,0.7c0,0.1,0.1,0.2,0.1,0.3c0.1,0.5,0.4,0.8,0.6,1
				c0.3,0.2,0.6,0.2,1,0.1c0.1,0,0.2-0.1,0.3-0.1c0.1,0,0.2-0.1,0.2-0.1c0.1,0,0.1-0.1,0.2-0.1c0,0,0.1-0.1,0.1-0.1
				c-0.1-0.3-0.1-0.5-0.2-0.8c-0.4,0.1-0.6,0.1-1,0.3c-0.1-0.3-0.1-0.5-0.2-0.8c1-0.3,1.5-0.4,2.5-0.6C42.4,12.8,42.5,13.2,42.6,14z
				"/>
			<path class="st0" d="M47.7,8.9c0.1,1.3,0.1,2,0.2,3.3c0,0.3,0,0.6-0.1,0.8c-0.1,0.2-0.2,0.4-0.4,0.6c-0.2,0.2-0.4,0.3-0.7,0.4
				c-0.3,0.1-0.6,0.2-0.9,0.2c-0.3,0-0.6,0-0.9,0c-0.3,0-0.5-0.1-0.8-0.2c-0.2-0.1-0.4-0.3-0.6-0.5c-0.2-0.2-0.3-0.5-0.3-0.7
				c-0.2-1.3-0.4-2-0.6-3.3c0.6-0.1,0.9-0.2,1.6-0.3c0.2,1.3,0.3,2,0.5,3.3c0,0.3,0.2,0.5,0.3,0.6c0.2,0.1,0.4,0.2,0.7,0.1
				c0.3,0,0.5-0.1,0.6-0.3c0.1-0.2,0.2-0.4,0.2-0.7c-0.1-1.3-0.2-2-0.3-3.3C46.8,8.9,47.1,8.9,47.7,8.9z"/>
			<path class="st0" d="M52.1,13c-0.8,0-1.2,0-1.9,0c-0.1,0.4-0.2,0.6-0.3,0.9c-0.6,0-0.9,0-1.5,0c0.6-1.7,1.3-3.5,2.1-5.1
				c0.6,0,0.9,0,1.5,0c0.7,1.7,1.4,3.5,1.9,5.2C53.3,14,53,14,52.4,14C52.3,13.6,52.2,13.4,52.1,13z M50.5,12c0.5,0,0.8,0,1.3,0
				c-0.2-0.7-0.4-1.1-0.6-1.8C50.9,10.9,50.8,11.3,50.5,12z"/>
			<path class="st0" d="M56.7,12.6c-0.3-0.1-0.5-0.1-0.8-0.1c-0.1,0.7-0.2,1.1-0.3,1.8c-0.5-0.1-0.8-0.1-1.4-0.2c0.2-2,0.3-3,0.6-5
				c1,0.1,1.5,0.2,2.5,0.4c0.4,0.1,0.7,0.2,1,0.3c0.3,0.1,0.5,0.3,0.7,0.4c0.2,0.2,0.3,0.4,0.4,0.6c0.1,0.2,0.1,0.4,0,0.7
				c0,0.2-0.1,0.4-0.2,0.5c-0.1,0.1-0.2,0.3-0.3,0.3c-0.1,0.1-0.3,0.2-0.4,0.2c-0.1,0.1-0.3,0.1-0.5,0.1c0.3,0.9,0.5,1.4,0.8,2.3
				c0,0,0,0,0,0.1c-0.6-0.1-0.9-0.2-1.5-0.3C57.2,13.8,57,13.4,56.7,12.6z M56.1,11.6c0.4,0.1,0.6,0.1,0.9,0.1c0.3,0,0.5,0,0.7-0.1
				c0.2-0.1,0.3-0.2,0.3-0.5c0-0.2,0-0.4-0.1-0.5s-0.3-0.3-0.6-0.3c-0.4-0.1-0.6-0.1-1-0.2C56.2,10.8,56.2,11,56.1,11.6z"/>
			<path class="st0" d="M63,15.1c-0.7-0.3-1.1-0.4-1.9-0.6c-0.2,0.3-0.4,0.5-0.6,0.8c-0.6-0.2-0.9-0.2-1.4-0.4
				c1.1-1.5,2.3-2.9,3.5-4.3c0.6,0.2,0.9,0.3,1.4,0.5c0.2,1.8,0.3,3.7,0.4,5.6c-0.6-0.2-0.8-0.3-1.4-0.5C63,15.7,63,15.5,63,15.1z
				 M61.7,13.7c0.5,0.2,0.7,0.2,1.2,0.4c0-0.8,0-1.1-0.1-1.9C62.4,12.8,62.2,13.1,61.7,13.7z"/>
			<path class="st0" d="M69.1,19c-0.5-0.3-0.7-0.4-1.2-0.7c-0.1-1.5-0.2-2.3-0.5-3.8c-0.5,1.1-0.8,1.7-1.3,2.9
				c-0.5-0.2-0.8-0.4-1.3-0.6c0.8-1.9,1.2-2.8,2-4.7c0.6,0.2,0.9,0.4,1.5,0.6c0.3,1.5,0.4,2.3,0.6,3.8c0.6-1.1,0.9-1.7,1.5-2.8
				c0.6,0.3,0.8,0.5,1.4,0.8C70.7,16.4,70.2,17.3,69.1,19z"/>
			<path class="st0" d="M76.2,18.9c-0.6-0.5-0.9-0.8-1.6-1.2c-1,1.3-1.5,2-2.4,3.3c-0.5-0.3-0.7-0.5-1.2-0.8
				c0.9-1.4,1.4-2.1,2.3-3.4c-0.6-0.4-1-0.6-1.6-1c0.2-0.3,0.3-0.5,0.5-0.8c1.6,1,3.2,2.1,4.6,3.3C76.6,18.5,76.4,18.6,76.2,18.9z"
				/>
			<path class="st0" d="M78.4,23.6c-0.7-0.7-1-1.1-1.8-1.7c-0.3,0.4-0.5,0.5-0.8,0.9c0.8,0.8,1.2,1.1,2,2c-0.3,0.3-0.4,0.4-0.7,0.6
				c-1.2-1.2-1.8-1.8-3.1-2.9c1.3-1.6,2-2.3,3.3-3.9c1.5,1.2,2.2,1.9,3.5,3.3c-0.3,0.3-0.4,0.4-0.7,0.7c-0.8-0.9-1.3-1.3-2.2-2.1
				c-0.3,0.3-0.4,0.5-0.7,0.8c0.7,0.7,1.1,1,1.8,1.8C78.8,23.2,78.7,23.4,78.4,23.6z"/>
			<path class="st0" d="M81.8,27.6c-0.6-0.8-0.9-1.2-1.6-2c-0.4,0.3-0.6,0.5-0.9,0.8c0.7,0.9,1.1,1.3,1.8,2.3
				c-0.3,0.2-0.5,0.3-0.8,0.6c-1-1.4-1.6-2.1-2.7-3.4c1.5-1.4,2.2-2.1,3.7-3.4c1.3,1.4,1.9,2.2,3.1,3.8c-0.3,0.2-0.5,0.3-0.8,0.6
				c-0.8-1-1.1-1.5-2-2.5c-0.3,0.3-0.5,0.4-0.8,0.7c0.7,0.8,1,1.2,1.6,2C82.2,27.3,82.1,27.4,81.8,27.6z"/>
		</g>
	</g>
	<g>
		<rect x="12.2" y="37.3" class="st1" width="76" height="25.2"/>
		<path class="st1" d="M89,63.3H11.4V36.5H89V63.3z M13,61.7h74.4V38.1H13V61.7z"/>
	</g>
	<g>
		<path class="st0" d="M18.4,42.8L20.1,53l1.7-10.2h2.5v14.7h-1.9v-3.4l0.2-7l-1.9,10.5h-1.2L17.6,47l0.2,7v3.4h-1.9V42.8H18.4z"/>
		<path class="st0" d="M32.2,50.4c0,1.1-0.1,2.1-0.3,3c-0.2,0.9-0.4,1.7-0.7,2.3c-0.3,0.6-0.7,1.1-1.1,1.4c-0.4,0.3-0.9,0.5-1.4,0.5
			c-0.5,0-1-0.2-1.4-0.5c-0.4-0.3-0.8-0.8-1.1-1.4c-0.3-0.6-0.5-1.4-0.7-2.3c-0.2-0.9-0.3-1.9-0.3-3v-0.6c0-1.1,0.1-2.1,0.3-3
			c0.2-0.9,0.4-1.7,0.7-2.3c0.3-0.6,0.7-1.1,1.1-1.4c0.4-0.3,0.9-0.5,1.4-0.5c0.5,0,1,0.2,1.4,0.5c0.4,0.3,0.8,0.8,1.1,1.4
			c0.3,0.6,0.5,1.4,0.7,2.3c0.2,0.9,0.3,1.9,0.3,3V50.4z M30.3,49.8c0-1.5-0.1-2.6-0.4-3.3c-0.3-0.8-0.6-1.1-1.1-1.1
			c-0.5,0-0.9,0.4-1.1,1.1c-0.2,0.8-0.4,1.9-0.4,3.3v0.6c0,1.4,0.1,2.5,0.4,3.3c0.3,0.8,0.6,1.2,1.1,1.2c0.5,0,0.9-0.4,1.1-1.2
			c0.3-0.8,0.4-1.9,0.4-3.3V49.8z"/>
		<path class="st0" d="M39.7,57.5h-1.9l-2.8-9.1v9.1h-1.9V42.8h1.9l2.8,9.1v-9.1h1.9V57.5z"/>
		<path class="st0" d="M45.8,51.3h-3v3.5h3.5v2.7h-5.4V42.8h5.4v2.7h-3.5v3.1h3V51.3z"/>
		<path class="st0" d="M50,49.2l1.4-6.4h2l-2.5,9.4v5.3H49v-5.3l-2.5-9.4h2L50,49.2z"/>
		<path class="st0" d="M56.8,57.5V42.8h2.8c0.5,0,0.9,0.1,1.3,0.2c0.4,0.2,0.7,0.4,1,0.8c0.3,0.3,0.5,0.8,0.6,1.3
			c0.1,0.5,0.2,1.1,0.2,1.8c0,0.3,0,0.7-0.1,1c0,0.3-0.1,0.6-0.2,0.9c-0.1,0.3-0.2,0.5-0.3,0.7c-0.1,0.2-0.3,0.4-0.5,0.5
			c0.2,0.1,0.4,0.3,0.6,0.5c0.2,0.2,0.3,0.5,0.4,0.7c0.1,0.3,0.2,0.6,0.2,0.9c0,0.3,0.1,0.7,0.1,1c0,1.5-0.2,2.5-0.7,3.3
			c-0.5,0.7-1.2,1.1-2.2,1.1H56.8z M58.7,48.9h1c0.4,0,0.7-0.1,0.9-0.4c0.2-0.3,0.3-0.7,0.3-1.2c0-0.6-0.1-1.1-0.3-1.3
			c-0.2-0.3-0.5-0.4-0.9-0.4h-0.9V48.9z M58.7,51.2v3.5h1.2c0.2,0,0.4,0,0.5-0.1c0.1-0.1,0.2-0.2,0.3-0.4c0.1-0.2,0.1-0.3,0.2-0.5
			c0-0.2,0.1-0.4,0.1-0.7c0-0.3,0-0.5-0.1-0.8c0-0.2-0.1-0.4-0.2-0.6c-0.1-0.2-0.2-0.3-0.3-0.4c-0.1-0.1-0.3-0.1-0.5-0.1H58.7z"/>
		<path class="st0" d="M68.3,54.7h-2.6l-0.5,2.7h-2l2.9-14.7h1.8l2.9,14.7h-2L68.3,54.7z M66.2,52h1.7L67,46.9L66.2,52z"/>
		<path class="st0" d="M77.6,52.5c0,0.8-0.1,1.5-0.3,2.1c-0.2,0.6-0.4,1.2-0.7,1.6c-0.3,0.5-0.6,0.8-1,1.1c-0.4,0.3-0.8,0.4-1.3,0.4
			c-0.5,0-1-0.2-1.4-0.5c-0.4-0.3-0.8-0.8-1-1.4c-0.3-0.6-0.5-1.4-0.7-2.3c-0.1-0.9-0.2-1.9-0.2-3v-0.8c0-1.1,0.1-2.1,0.2-3
			c0.2-0.9,0.4-1.6,0.7-2.3c0.3-0.6,0.6-1.1,1-1.4c0.4-0.3,0.9-0.5,1.4-0.5c0.5,0,1,0.1,1.4,0.4c0.4,0.3,0.7,0.6,1,1.1
			c0.3,0.5,0.5,1,0.6,1.7c0.2,0.6,0.2,1.3,0.3,2.1h-1.9c0-0.4,0-0.8-0.1-1.1c-0.1-0.3-0.1-0.6-0.2-0.8c-0.1-0.2-0.3-0.4-0.4-0.5
			c-0.2-0.1-0.4-0.2-0.6-0.2c-0.2,0-0.4,0.1-0.6,0.2c-0.2,0.2-0.3,0.4-0.4,0.8c-0.1,0.3-0.2,0.8-0.3,1.4c-0.1,0.6-0.1,1.2-0.1,2v0.8
			c0,0.8,0,1.4,0.1,2c0.1,0.6,0.1,1,0.2,1.4c0.1,0.4,0.3,0.6,0.4,0.8c0.2,0.2,0.4,0.2,0.7,0.2c0.4,0,0.8-0.2,1-0.6
			c0.2-0.4,0.4-1,0.4-1.8H77.6z"/>
		<path class="st0" d="M81.2,52l-0.8,1.6v3.9h-1.9V42.8h1.9v6.5l0.7-1.9l1.7-4.6h2.3l-2.6,6.5l2.6,8.2h-2.2L81.2,52z"/>
	</g>
	<g>
		<polygon class="st0" points="50.2,23.7 51.1,25.6 53.2,25.9 51.7,27.3 52.1,29.4 50.2,28.4 48.3,29.4 48.7,27.3 47.2,25.9 
			49.3,25.6 		"/>
		<polygon class="st0" points="57.9,25.6 58.5,27 60.1,27.2 59,28.3 59.2,29.8 57.9,29.1 56.5,29.8 56.8,28.3 55.7,27.2 57.2,27 		
			"/>
		<polygon class="st0" points="43.3,25.6 44,27 45.5,27.2 44.4,28.3 44.7,29.8 43.3,29.1 41.9,29.8 42.2,28.3 41.1,27.2 42.6,27 		
			"/>
		<polygon class="st0" points="37.9,27.7 38.4,28.7 39.4,28.8 38.7,29.6 38.9,30.6 37.9,30.1 37,30.6 37.2,29.6 36.4,28.8 
			37.4,28.7 		"/>
		<polygon class="st0" points="63.4,27.7 63.9,28.7 65,28.8 64.2,29.6 64.4,30.6 63.4,30.1 62.5,30.6 62.7,29.6 61.9,28.8 63,28.7 
					"/>
		<polygon class="st0" points="67.2,30.9 67.5,31.6 68.3,31.7 67.8,32.3 67.9,33 67.2,32.7 66.5,33 66.6,32.3 66.1,31.7 66.8,31.6 
					"/>
		<polygon class="st0" points="33.6,30.4 33.9,31.1 34.7,31.2 34.1,31.7 34.3,32.5 33.6,32.1 32.9,32.5 33,31.7 32.5,31.2 
			33.2,31.1 		"/>
		<polygon class="st0" points="30.9,33.3 31.1,33.7 31.6,33.8 31.2,34.1 31.3,34.6 30.9,34.4 30.5,34.6 30.5,34.1 30.2,33.8 
			30.7,33.7 		"/>
		<polygon class="st0" points="70.2,33.6 70.4,34.1 70.9,34.1 70.5,34.5 70.6,35 70.2,34.7 69.7,35 69.8,34.5 69.5,34.1 69.9,34.1 
					"/>
	</g>
	<g>
		<polygon class="st0" points="50.5,76 49.6,74.1 47.5,73.8 49,72.3 48.7,70.2 50.5,71.2 52.4,70.2 52,72.3 53.6,73.8 51.5,74.1 		
			"/>
		<polygon class="st0" points="42.9,74 42.2,72.6 40.7,72.4 41.8,71.4 41.5,69.8 42.9,70.6 44.2,69.8 44,71.4 45.1,72.4 43.6,72.6 
					"/>
		<polygon class="st0" points="57.4,74 56.8,72.6 55.2,72.4 56.3,71.4 56.1,69.8 57.4,70.6 58.8,69.8 58.5,71.4 59.6,72.4 
			58.1,72.6 		"/>
		<polygon class="st0" points="62.8,71.9 62.4,71 61.3,70.8 62.1,70.1 61.9,69 62.8,69.5 63.8,69 63.6,70.1 64.3,70.8 63.3,71 		"/>
		<polygon class="st0" points="37.3,71.9 36.8,71 35.8,70.8 36.5,70.1 36.4,69 37.3,69.5 38.2,69 38,70.1 38.8,70.8 37.8,71 		"/>
		<polygon class="st0" points="33.5,68.7 33.2,68 32.4,67.9 33,67.4 32.9,66.6 33.5,67 34.2,66.6 34.1,67.4 34.7,67.9 33.9,68 		"/>
		<polygon class="st0" points="67.2,69.3 66.8,68.6 66.1,68.5 66.6,67.9 66.5,67.1 67.2,67.5 67.9,67.1 67.7,67.9 68.3,68.5 
			67.5,68.6 		"/>
		<polygon class="st0" points="69.8,66.4 69.6,66 69.1,65.9 69.5,65.5 69.4,65.1 69.8,65.3 70.3,65.1 70.2,65.5 70.5,65.9 70.1,66 
					"/>
		<polygon class="st0" points="30.6,66 30.4,65.6 29.9,65.5 30.2,65.2 30.1,64.7 30.6,64.9 31,64.7 30.9,65.2 31.3,65.5 30.8,65.6 
					"/>
	</g>
</g>
</svg>
