<?xml version="1.0" encoding="utf-8"?>
<!-- Generator: Adobe Illustrator 23.0.5, SVG Export Plug-In . SVG Version: 6.00 Build 0)  -->
<svg version="1.1" id="Layer_1" xmlns="http://www.w3.org/2000/svg" xmlns:xlink="http://www.w3.org/1999/xlink" x="0px" y="0px"
	 viewBox="0 0 100 100" style="enable-background:new 0 0 100 100;" xml:space="preserve">
<style type="text/css">
	.st0{opacity:0.5;fill:#EFEFEF;}
	.st1{fill:#A4AFC1;}
	.st2{fill:#0F996D;}
	.st3{fill:#484848;}
	.st4{fill:#FFFFFF;}
</style>
<g>
	<path class="st0" d="M11.5,76.8c0-19.3-10-32.5-10-41.8s5.3-28.8,48-28.8s49,26.2,49,36.5C98.5,90.5,11.5,110.9,11.5,76.8z"/>
	<g>
		<path class="st1" d="M15.5,16.9h5.6v2.8h-5.6V16.9z"/>
		<path class="st1" d="M31.5,16.9h5.6v2.8h-5.6C31.5,19.7,31.5,16.9,31.5,16.9z"/>
		<path class="st1" d="M24.6,23.9h2.8v5.6h-2.8V23.9z"/>
		<path class="st1" d="M24.6,7.9h2.8v5.6h-2.8V7.9z"/>
	</g>
</g>
<g>
	<path class="st2" d="M78.4,44.7V58c0,1.7-1.4,3.1-3.1,3.1v8.1l-7.8-8.1h-15c-1.7,0-3.1-1.4-3.1-3.1V44.7c0-1.7,1.4-3.1,3.1-3.1
		h22.7C77,41.6,78.4,43,78.4,44.7z"/>
	<g>
		<path class="st3" d="M75.3,40.8H61.1v-11c0-2.2-1.8-3.9-3.9-3.9H34.5c-2.2,0-3.9,1.8-3.9,3.9v13.3c0,1.9,1.3,3.5,3.1,3.8v7.4
			c0,0.3,0.2,0.6,0.5,0.7s0.6,0,0.9-0.2l7.6-7.8h5.9v11c0,2.2,1.8,3.9,3.9,3.9h14.6l7.6,7.8c0.2,0.2,0.6,0.3,0.9,0.2
			c0.3-0.1,0.5-0.4,0.5-0.7v-7.4c1.8-0.4,3.1-2,3.1-3.8V44.7C79.2,42.6,77.4,40.8,75.3,40.8z M42.3,45.5c-0.2,0-0.4,0.1-0.6,0.2
			l-6.5,6.7v-6.1c0-0.4-0.4-0.8-0.8-0.8c-1.3,0-2.4-1.1-2.4-2.4V29.8c0-1.3,1.1-2.4,2.4-2.4h22.7c1.3,0,2.4,1.1,2.4,2.4v11h-7.1
			c-1,0-1.9,0.4-2.6,1l-4.5-4.5l2.7-2.7h2c0.4,0,0.8-0.4,0.8-0.8S50.6,33,50.2,33h-4.7v-1.6c0-0.4-0.4-0.8-0.8-0.8s-0.8,0.4-0.8,0.8
			V33H40c-0.4,0-0.8,0.4-0.8,0.8s0.4,0.8,0.8,0.8h6l-7.7,7.7C38,42.4,37.9,42.7,38,43s0.3,0.5,0.6,0.6s0.6,0,0.8-0.2l4.9-4.9
			l4.5,4.5c0.1,0,0.1,0.1,0.2,0.1c-0.3,0.5-0.4,1.1-0.4,1.7v0.8L42.3,45.5L42.3,45.5z M77.6,58.1c0,1.3-1.1,2.4-2.4,2.4
			c-0.4,0-0.8,0.4-0.8,0.8v6.1L68,60.7c-0.1-0.2-0.4-0.2-0.6-0.2H52.5c-1.3,0-2.4-1.1-2.4-2.4V44.7c0-1.3,1.1-2.4,2.4-2.4h22.7
			c1.3,0,2.4,1.1,2.4,2.4V58.1z"/>
		<path class="st4" d="M67.2,53.1c0.2-0.2,0.3-0.5,0.1-0.8c-0.1-0.3-0.4-0.5-0.7-0.5L65,47.6c-0.1-0.3-0.4-0.5-0.7-0.5
			c-0.3,0-0.6,0.1-0.7,0.4l-3.9,7.8c-0.2,0.4,0,0.9,0.4,1.1c0.4,0.2,0.9,0,1.1-0.4l1.4-2.7h3.2l1.1,2.6c0.1,0.3,0.4,0.5,0.7,0.5
			c0.1,0,0.2,0,0.3-0.1c0.4-0.2,0.6-0.6,0.4-1L67.2,53.1z M63.2,51.8l1-2l0.8,2H63.2z"/>
		<path class="st4" d="M76,44.7h-5.5c-0.4,0-0.8,0.4-0.8,0.8s0.4,0.8,0.8,0.8H76c0.4,0,0.8-0.4,0.8-0.8S76.5,44.7,76,44.7z"/>
		<path class="st4" d="M67.9,44.8c-0.1,0-0.2,0.1-0.3,0.2c-0.1,0.2-0.2,0.3-0.2,0.6c0,0.4,0.4,0.8,0.8,0.8S69,46,69,45.5
			c0-0.2-0.1-0.4-0.2-0.6C68.5,44.7,68.2,44.7,67.9,44.8z"/>
		<path class="st3" d="M52.5,30.6H58c0.4,0,0.8-0.4,0.8-0.8S58.4,29,58,29h-5.5c-0.4,0-0.8,0.4-0.8,0.8S52.1,30.6,52.5,30.6z"/>
		<path class="st3" d="M49.6,30.4c0.2,0.2,0.6,0.3,0.9,0.2c0.1,0,0.2-0.1,0.3-0.2c0.2-0.2,0.3-0.6,0.2-0.9c0-0.1-0.1-0.2-0.2-0.3
			l-0.1-0.1L50.6,29h-0.1c-0.2,0-0.3,0-0.4,0c-0.1,0-0.2,0.1-0.3,0.2s-0.1,0.2-0.2,0.3c-0.1,0.2-0.1,0.4,0,0.6
			C49.5,30.2,49.5,30.3,49.6,30.4z"/>
	</g>
</g>
</svg>
