<?xml version="1.0" encoding="utf-8"?>
<!-- Generator: Adobe Illustrator 23.0.5, SVG Export Plug-In . SVG Version: 6.00 Build 0)  -->
<svg version="1.1" id="Layer_1" xmlns="http://www.w3.org/2000/svg" xmlns:xlink="http://www.w3.org/1999/xlink" x="0px" y="0px"
	 viewBox="0 0 100 100" style="enable-background:new 0 0 100 100;" xml:space="preserve">
<style type="text/css">
	.st0{opacity:0.5;fill:#EFEFEF;}
	.st1{fill:#A4AFC1;}
	.st2{fill:#0F996D;}
	.st3{fill:#00B871;}
	.st4{fill:#484848;}
</style>
<g>
	<path class="st0" d="M12.3,76.4c0-19.1-9.9-32.2-9.9-41.5S7.7,6.4,50.1,6.4s48.6,26,48.6,36.2C98.7,90,12.3,110.2,12.3,76.4z"/>
	<g>
		<path class="st1" d="M16.4,17h5.5v2.8h-5.5V17z"/>
		<path class="st1" d="M32.3,17h5.5v2.8h-5.5V17z"/>
		<path class="st1" d="M25.3,23.9h2.8v5.5h-2.8V23.9z"/>
		<path class="st1" d="M25.3,8h2.8v5.5h-2.8V8z"/>
	</g>
</g>
<path class="st2" d="M61.1,81.3c0,0,12.9-5.4,12.9-16.3c0-4.4,0-9.8,0-9.8l-12.9-4.4l-12.9,4.4V65C48.2,75.9,61.1,81.3,61.1,81.3z"
	/>
<path class="st3" d="M63.5,80.1c-1.4,0.8-2.3,1.2-2.3,1.2S48.2,75.9,48.2,65c0-6.5,0-9.8,0-9.8l12.9-4.4l2.3,0.8l-10.5,3.6V65
	C52.9,72.9,59.8,77.9,63.5,80.1L63.5,80.1z"/>
<path class="st4" d="M44.8,78.4H20.1c-0.5,0-1.1-0.2-1.4-0.7c-0.3-0.4-0.4-1-0.3-1.5l1.3-5.1c0.7-2.7,2.7-4.9,5.3-5.7l9.4-3.1
	c1.1-0.5,1.8-2.3,1.9-5c-1.3-1.2-3.4-3.5-3.4-6.1c0-0.3,0-0.5-0.1-0.6c-0.4-0.2-0.7-0.5-0.9-0.9c-0.1-0.3-1.2-3-1.2-4.9
	c0-0.1,0-0.3,0-0.4c0.2-0.6,0.5-1.3,1-1.7c0-0.2,0-0.4,0-0.7c0.1-1.2,0.1-2.7,0.1-4.6c0-4.6,5.4-11.7,12.6-11.7
	c6.1,0,9.1,3.2,9.9,5.4c1.5,0.9,2.8,2.4,2.8,6.3v5.3c0.5,0.4,0.9,1,1.1,1.6c0.1,0.2,0.1,0.4,0.1,0.6l-1.9,0.1l-1.5,0.5
	c0,0,0.2,0.1,0.5,0.1c-1,0-1.8-0.8-1.8-1.8v-6.4c0-2.7-0.7-3.1-1.2-3.3c-0.4-0.2-1.4-0.7-1.4-2c-0.1-0.4-1.7-2.9-6.5-2.9
	c-5.1,0-9.1,5.5-9.1,8.2c0,2-0.1,3.6-0.1,4.8c0,0.7-0.1,1.2-0.1,1.6c0,0.7-0.4,1.3-1,1.6c0.1,0.8,0.4,1.8,0.7,2.5
	c0.7,0.6,1.4,1.6,1.4,3.3c0,0.9,1.2,2.6,2.8,3.9c0.4,0.3,0.6,0.8,0.6,1.4c0,4.7-1.5,7.9-4.2,9.1l-9.5,3.2c-1.5,0.5-2.6,1.7-3,3.3
	l-0.7,2.9h22.4L44.8,78.4z M33.2,50.7L33.2,50.7C33.2,50.7,33.2,50.7,33.2,50.7z M33.2,50.7"/>
<path class="st4" d="M61.1,83c-0.2,0-0.5,0-0.7-0.1c-0.6-0.2-14-6-14-17.9v-9.8c0-0.8,0.5-1.4,1.2-1.7l12.9-4.4
	c0.4-0.1,0.8-0.1,1.1,0l12.9,4.4c0.7,0.2,1.2,0.9,1.2,1.7V65c0,11.9-13.4,17.7-14,17.9C61.6,83,61.4,83,61.1,83z M50,56.4V65
	c0,8.2,8.6,13.1,11.1,14.4c2.5-1.3,11.1-6.2,11.1-14.4v-8.5l-11.1-3.8L50,56.4z"/>
</svg>
