<?xml version="1.0" encoding="utf-8"?>
<!-- Generator: Adobe Illustrator 23.0.5, SVG Export Plug-In . SVG Version: 6.00 Build 0)  -->
<svg version="1.1" id="Layer_1" xmlns="http://www.w3.org/2000/svg" xmlns:xlink="http://www.w3.org/1999/xlink" x="0px" y="0px"
	 viewBox="0 0 100 100" style="enable-background:new 0 0 100 100;" xml:space="preserve">
<style type="text/css">
	.st0{opacity:0.5;fill:#EFEFEF;}
	.st1{fill:#A4AFC1;}
	.st2{fill:#484848;}
	.st3{fill:#0F996D;}
</style>
<g>
	<path class="st0" d="M11.2,77c0-19.4-10.1-32.7-10.1-42.1s5.4-29,48.4-29s49.3,26.4,49.3,36.7C98.9,90.8,11.2,111.4,11.2,77z"/>
	<g>
		<path class="st1" d="M15.3,16.7h5.6v2.8h-5.6C15.3,19.5,15.3,16.7,15.3,16.7z"/>
		<path class="st1" d="M31.4,16.7H37v2.8h-5.6V16.7z"/>
		<path class="st1" d="M24.4,23.7h2.8v5.6h-2.8V23.7z"/>
		<path class="st1" d="M24.4,7.6h2.8v5.6h-2.8V7.6z"/>
	</g>
</g>
<g>
	<g>
		<g>
			<path class="st2" d="M81,32.3c-0.7-0.6-1.7-0.7-2.5-0.3L66,38.1L54.2,24.5c-0.4-0.5-1.1-0.8-1.7-0.8c-0.7,0-1.3,0.3-1.7,0.8
				L38.9,38.1L26.4,32c-0.8-0.4-1.8-0.3-2.5,0.3s-1,1.5-0.7,2.4l8.7,28.7c0.3,1,1.2,1.6,2.2,1.6h36.7c1,0,1.9-0.7,2.2-1.6l8.7-28.7
				C82,33.8,81.7,32.9,81,32.3z M69.1,60.4H35.8l-6.7-22l9.4,4.6c0.9,0.5,2.1,0.2,2.7-0.6l11.2-12.9l11.2,12.9
				c0.7,0.8,1.8,1,2.7,0.6l9.4-4.6L69.1,60.4z"/>
		</g>
	</g>
	<path class="st3" d="M70.1,76.3H32.9c-0.6,0-1.2-0.5-1.2-1.2v-3.3c0-0.6,0.5-1.2,1.2-1.2H70c0.6,0,1.2,0.5,1.2,1.2v3.3
		C71.2,75.8,70.7,76.3,70.1,76.3z"/>
</g>
</svg>
