<?xml version="1.0" encoding="utf-8"?>
<!-- Generator: Adobe Illustrator 23.0.5, SVG Export Plug-In . SVG Version: 6.00 Build 0)  -->
<svg version="1.1" id="Layer_1" xmlns="http://www.w3.org/2000/svg" xmlns:xlink="http://www.w3.org/1999/xlink" x="0px" y="0px"
	 viewBox="0 0 100 100" style="enable-background:new 0 0 100 100;" xml:space="preserve">
<style type="text/css">
	.st0{opacity:0.5;fill:#EFEFEF;}
	.st1{fill:#A4AFC1;}
	.st2{fill:#FFFFFF;stroke:#DDDDDD;stroke-miterlimit:10;}
	.st3{fill:#0F996D;}
	.st4{fill:#00B871;}
	.st5{fill:#484848;}
</style>
<g>
	<path class="st0" d="M11,79.5C11,60,1,46.6,1,37.2S6.4,8.1,49.5,8.1S99,34.7,99,45C99,93.3,11,114,11,79.5z"/>
	<g>
		<path class="st1" d="M15.2,18.9h5.6v2.8h-5.6C15.2,21.7,15.2,18.9,15.2,18.9z"/>
		<path class="st1" d="M31.3,18.9H37v2.8h-5.6v-2.8H31.3z"/>
		<path class="st1" d="M24.3,26h2.8v5.6h-2.8V26z"/>
		<path class="st1" d="M24.3,9.8h2.8v5.6h-2.8V9.8z"/>
	</g>
</g>
<path class="st2" d="M37.1,37v-4.9c0-2.7,2.2-4.9,4.9-4.9h35.6c2.7,0,4.9,2.2,4.9,4.9V37H37.1z"/>
<path class="st3" d="M82.6,37v16c0,2.7-2.2,4.9-4.9,4.9H42c-2.7,0-4.9-2.2-4.9-4.9V37H82.6z"/>
<path class="st2" d="M67.8,77.6H32.2c-2.7,0-4.9-2.2-4.9-4.9V51.8c0-2.7,2.2-4.9,4.9-4.9h35.6c2.7,0,4.9,2.2,4.9,4.9v20.9
	C72.7,75.4,70.5,77.6,67.8,77.6z"/>
<path class="st3" d="M40.8,62.8h-3.7c-1.4,0-2.5-1.1-2.5-2.5v-3.7c0-1.4,1.1-2.5,2.5-2.5h3.7c1.4,0,2.5,1.1,2.5,2.5v3.7
	C43.2,61.7,42.1,62.8,40.8,62.8z"/>
<path class="st4" d="M37.1,37h5.5v9.8h-5.5V37z"/>
<path class="st4" d="M40.2,60.4v-3.7c0-1,0.6-1.9,1.5-2.3c-0.3-0.1-0.6-0.2-0.9-0.2h-3.7c-1.4,0-2.5,1.1-2.5,2.5v3.7
	c0,1.4,1.1,2.5,2.5,2.5h3.7c0.3,0,0.6-0.1,0.9-0.2C40.8,62.3,40.2,61.4,40.2,60.4z"/>
<path class="st5" d="M67.8,79.4H32.2c-3.7,0-6.8-3-6.8-6.8V51.8c0-3.7,3-6.8,6.8-6.8h35.6c3.7,0,6.8,3,6.8,6.8v20.9
	C74.6,76.4,71.5,79.4,67.8,79.4z M32.2,48.7c-1.7,0-3.1,1.4-3.1,3.1v20.9c0,1.7,1.4,3.1,3.1,3.1h35.6c1.7,0,3.1-1.4,3.1-3.1V51.8
	c0-1.7-1.4-3.1-3.1-3.1H32.2z"/>
<path class="st5" d="M40.8,64.7h-3.7c-2.4,0-4.3-1.9-4.3-4.3v-3.7c0-2.4,1.9-4.3,4.3-4.3h3.7c2.4,0,4.3,1.9,4.3,4.3v3.7
	C45.1,62.7,43.2,64.7,40.8,64.7z M37.1,56.1c-0.3,0-0.6,0.3-0.6,0.6v3.7c0,0.3,0.3,0.6,0.6,0.6h3.7c0.3,0,0.6-0.3,0.6-0.6v-3.7
	c0-0.3-0.3-0.6-0.6-0.6H37.1z"/>
<path class="st5" d="M32.8,68.4h34.4V72H32.8V68.4z"/>
<path class="st5" d="M38.3,35.2h43v3.7h-43C38.3,38.9,38.3,35.2,38.3,35.2z"/>
<path class="st5" d="M81,58.8l-1.8-3.2c1-0.5,1.5-1.5,1.5-2.6V32.1c0-1.7-1.4-3.1-3.1-3.1H42c-1.7,0-3.1,1.4-3.1,3.1v7.4h-3.7v-7.4
	c0-3.7,3-6.8,6.8-6.8h35.6c3.7,0,6.8,3,6.8,6.8V53C84.4,55.4,83.1,57.6,81,58.8L81,58.8z"/>
</svg>
