<?xml version="1.0" encoding="utf-8"?>
<!-- Generator: Adobe Illustrator 23.0.5, SVG Export Plug-In . SVG Version: 6.00 Build 0)  -->
<svg version="1.1" id="Layer_1" xmlns="http://www.w3.org/2000/svg" xmlns:xlink="http://www.w3.org/1999/xlink" x="0px" y="0px"
	 viewBox="0 0 100 100" style="enable-background:new 0 0 100 100;" xml:space="preserve">
<style type="text/css">
	.st0{opacity:0.5;fill:#EFEEEE;}
	.st1{fill:#A4AEC0;}
	.st2{fill:#0F986D;}
	.st3{fill:#494848;}
</style>
<g>
	<path class="st0" d="M11.4,76.3c0-19.3-10-32.5-10-41.8S6.8,5.7,49.5,5.7s49.1,26.3,49.1,36.5C98.6,90.1,11.4,110.5,11.4,76.3z"/>
	<g>
		<path class="st1" d="M15.5,16.4h5.6v2.8h-5.6V16.4z"/>
		<path class="st1" d="M31.5,16.4h5.6v2.8h-5.6V16.4z"/>
		<path class="st1" d="M24.5,23.3h2.8v5.6h-2.8V23.3z"/>
		<path class="st1" d="M24.5,7.3h2.8v5.6h-2.8V7.3z"/>
	</g>
</g>
<g>
	<path class="st2" d="M53.5,75.4l-1.7-9.5l0.9-2.6L50,61.6l-2.6,1.7l0.9,2.6l-1.7,9.5H53.5z"/>
	<path class="st2" d="M67.6,52.1c-2.7-0.9-4.6-3.5-4.6-6.4V35.7c0-7.1-5.8-13-13-13s-13,5.8-13,13v10.1c0,2.9-1.8,5.5-4.6,6.4
		l-0.9,0.3l0.7,1.4c1.2,2.4,3.5,4.2,6.1,4.8l7.4-2.3v-3.8c-2.3-1.4-4-3.8-4.3-6.6h0c-1.9,0-3.5-1.5-3.5-3.5s1.5-3.5,3.5-3.5v-2.6
		h0.7c1.6,0,3.1-1,3.6-2.6l-0.9,2.6h1.6c1.6,0,3.1-1,3.6-2.6l-0.9,2.6h1.6c1.6,0,3.1-1,3.6-2.6l-0.9,2.6H55c1.6,0,3.1-1,3.6-2.6v5.2
		c1.9,0,3.5,1.5,3.5,3.5S60.5,46,58.6,46h0c-0.3,2.8-1.9,5.3-4.3,6.6v3.8l7.4,2.3c2.6-0.6,4.9-2.4,6.1-4.8l0.7-1.4L67.6,52.1z"/>
	<path class="st3" d="M50,50.4c1.9,0,3.5-1.6,3.5-3.5h-1.7c0,1-0.8,1.7-1.7,1.7c-1,0-1.7-0.8-1.7-1.7h-1.7
		C46.5,48.8,48.1,50.4,50,50.4z"/>
	<path class="st3" d="M50,22.7c-14.8,0-26.8,12-26.8,26.8s12,26.8,26.8,26.8s26.8-12,26.8-26.8S64.8,22.7,50,22.7z M50,24.4
		c13.8,0,25.1,11.2,25.1,25.1c0,6.2-2.3,11.9-6,16.3v-1.3c0-2.7-1.7-5-4.2-5.8l-9.6-3v-2.6c2.2-1.4,3.7-3.7,4.2-6.3
		c2-0.3,3.6-2.1,3.6-4.2c0-2.1-1.5-3.8-3.5-4.2v-4.4h-0.9l-0.8-0.3c-0.4,1.2-1.5,2-2.8,2h-0.7c0.3-0.4,0.6-0.9,0.8-1.5l-1.6-0.5
		c-0.4,1.2-1.5,2-2.8,2H50c0.3-0.4,0.6-0.9,0.8-1.5l-1.6-0.5c-0.4,1.2-1.5,2-2.8,2h-0.7c0.3-0.4,0.6-0.9,0.8-1.5l-1.6-0.5
		c-0.4,1.2-1.4,1.9-2.6,2v-1.7h-1.7v4.4c-2,0.4-3.5,2.1-3.5,4.2c0,2.1,1.6,3.9,3.6,4.2c0.5,2.6,2,4.9,4.2,6.3v2.6l-9.6,3
		c-2.5,0.8-4.2,3.1-4.2,5.8v1.3c-3.8-4.4-6-10.1-6-16.3C24.9,35.7,36.2,24.4,50,24.4z M50,60.2l-3.5-4.1V54c1.1,0.4,2.2,0.7,3.5,0.7
		c1.2,0,2.4-0.2,3.5-0.7v2.1L50,60.2z M44,57.8l1.4-0.4l3.4,4l-0.1,0.1c-1.2,0.9-2.8,0.8-3.9-0.3c-0.6-0.6-0.9-1.3-0.9-2.1V57.8z
		 M40.5,45c-1-0.4-1.7-1.3-1.7-2.4s0.7-2.1,1.7-2.4V45z M42.2,37.4c1,0,1.9-0.3,2.6-0.9v0.9h1.6c1,0,2-0.3,2.7-0.9v0.9h1.6
		c1,0,2-0.3,2.7-0.9v0.9H55c1,0,2-0.3,2.7-0.9v4.3h-1c-0.4-1-1.3-1.7-2.4-1.7h-0.9c-1.1,0-2.1,0.7-2.4,1.7h-2
		c-0.4-1-1.3-1.7-2.4-1.7h-0.9c-1.1,0-2.1,0.7-2.4,1.7h-1V37.4z M59.5,40.1c1,0.4,1.7,1.3,1.7,2.4s-0.7,2.1-1.7,2.4V40.1z
		 M55.2,41.7c0,0.5-0.4,0.9-0.9,0.9h-0.9c-0.5,0-0.9-0.4-0.9-0.9s0.4-0.9,0.9-0.9h0.9C54.8,40.8,55.2,41.2,55.2,41.7z M47.4,41.7
		c0,0.5-0.4,0.9-0.9,0.9h-0.9c-0.5,0-0.9-0.4-0.9-0.9s0.4-0.9,0.9-0.9h0.9C47,40.8,47.4,41.2,47.4,41.7z M42.2,42.6h1
		c0.4,1,1.3,1.7,2.4,1.7h0.9c1.1,0,2.1-0.7,2.4-1.7h2c0.4,1,1.3,1.7,2.4,1.7h0.9c1.1,0,2.1-0.7,2.4-1.7h1v2.6c0,4.3-3.5,7.8-7.8,7.8
		s-7.8-3.5-7.8-7.8V42.6z M54.6,57.4l1.4,0.4v1.3c0,0.8-0.3,1.5-0.9,2.1c-1,1-2.7,1.1-3.9,0.3l-0.1-0.1L54.6,57.4z M40.5,72.7V62.4
		h-1.7v9.4c-2.2-1.1-4.3-2.6-6-4.3v-3.1c0-1.9,1.2-3.6,3-4.1l6.5-2v0.8c0,1.2,0.5,2.4,1.4,3.3c0.9,0.9,2.1,1.4,3.3,1.4
		c1,0,2-0.3,2.8-0.9l0.3-0.2l0.3,0.2c0.8,0.6,1.8,0.9,2.8,0.9c1.2,0,2.4-0.5,3.3-1.4c0.9-0.9,1.4-2.1,1.4-3.3v-0.8l6.5,2
		c1.8,0.6,3,2.2,3,4.1v3.1c-1.8,1.7-3.8,3.1-6,4.3v-9.4h-1.7v10.2c-2.9,1.2-6.1,1.9-9.5,1.9C46.6,74.5,43.4,73.9,40.5,72.7z"/>
</g>
</svg>
