<?xml version="1.0" encoding="utf-8"?>
<!-- Generator: Adobe Illustrator 23.0.5, SVG Export Plug-In . SVG Version: 6.00 Build 0)  -->
<svg version="1.1" id="Layer_1" xmlns="http://www.w3.org/2000/svg" xmlns:xlink="http://www.w3.org/1999/xlink" x="0px" y="0px"
	 viewBox="0 0 100 100" style="enable-background:new 0 0 100 100;" xml:space="preserve">
<style type="text/css">
	.st0{opacity:0.5;fill:#EFEFEF;}
	.st1{fill:#A4AFC1;}
	.st2{fill:#F3F3F1;}
	.st3{fill:#0F996D;}
	.st4{fill:#D5DBE1;}
	.st5{fill:#00B871;}
	.st6{fill:#484848;}
</style>
<g>
	<path class="st0" d="M11.5,79.1c0-19.2-10-32.4-10-41.7s5.3-28.7,48-28.7S98.4,34.8,98.4,45C98.4,92.7,11.5,113.1,11.5,79.1z"/>
	<g>
		<path class="st1" d="M15.6,19.3h5.6V22h-5.6V19.3z"/>
		<path class="st1" d="M31.6,19.3h5.6V22h-5.6V19.3z"/>
		<path class="st1" d="M24.6,26.2h2.8v5.6h-2.8V26.2z"/>
		<path class="st1" d="M24.6,10.2h2.8v5.6h-2.8V10.2z"/>
	</g>
</g>
<g>
	<path class="st2" d="M59.9,44.8v-3.2c0-1.2-1-2.2-2.2-2.2H45.9V45L59.9,44.8z"/>
	<path class="st3" d="M46,44.9l-3-18.2c-0.2-1.1-1.1-1.9-2.2-1.9h-0.7c-1.1,0-2,0.8-2.2,1.9l-3,18.2H46z"/>
	<ellipse class="st3" cx="67.1" cy="62.1" rx="12.8" ry="6.1"/>
	<path class="st4" d="M50.4,39.3v5.5h-4.5v-5.6L50.4,39.3L50.4,39.3z"/>
	<path class="st5" d="M42.1,25.3c-0.4,0.3-0.8,0.8-0.9,1.4l-3,18.2h-3.3l3-18.2c0.2-1.1,1.1-1.9,2.2-1.9h0.7
		C41.2,24.8,41.7,25,42.1,25.3z"/>
	<path class="st4" d="M38.9,44.9c-2.2,0-4,2-4,4.5v14.5h-5V49.3c0-2.4,1.8-4.5,4-4.5h5V44.9z"/>
	<path class="st4" d="M69.6,74.8c-0.8,0.1-1.6,0.1-2.5,0.1c-7.1,0-12.8-2.7-12.8-6.1v-6.7h5v6.7C59.3,71.8,63.7,74.2,69.6,74.8
		L69.6,74.8z"/>
	<path class="st5" d="M69.6,68.1c-0.8,0.1-1.6,0.1-2.5,0.1c-7.1,0-12.8-2.7-12.8-6.1S60,56,67.1,56c0.9,0,1.7,0,2.5,0.1
		c-5.9,0.5-10.3,3-10.3,6S63.7,67.6,69.6,68.1L69.6,68.1z"/>
	<path class="st6" d="M67.1,69.9c-8.2,0-14.5-3.3-14.5-7.8s6.2-7.8,14.5-7.8s14.5,3.3,14.5,7.8S75.3,69.9,67.1,69.9z M67.1,57.7
		c-6.8,0-11.1,2.6-11.1,4.5c0,1.8,4.3,4.5,11.1,4.5s11.1-2.6,11.1-4.5C78.2,60.3,73.9,57.7,67.1,57.7z"/>
	<path class="st6" d="M67.1,76.6c-8.2,0-14.5-3.3-14.5-7.8v-6.7H56v6.7c0,1.8,4.3,4.5,11.1,4.5s11.1-2.6,11.1-4.5v-6.7h3.3v6.7
		C81.6,73.2,75.3,76.6,67.1,76.6z"/>
	<path class="st6" d="M44.8,51h6.7v3.3h-6.7V51z"/>
	<path class="st6" d="M34.8,51h6.7v3.3h-6.7V51z"/>
	<path class="st6" d="M48.7,65.4H29.8c-0.9,0-1.7-0.7-1.7-1.7V49.3c0-3.4,2.7-6.1,6.1-6.1h24.5c2.4,0,4.6,1.4,5.5,3.6l-3,1.4
		c-0.4-1-1.4-1.6-2.5-1.6H34.3c-1.5,0-2.8,1.2-2.8,2.8v12.8h17.2V65.4z"/>
	<path class="st6" d="M61.5,44.8h-3.3v-3.2c0-0.3-0.2-0.6-0.6-0.6H45.9v-3.3h11.7c2.1,0,3.9,1.7,3.9,3.9
		C61.5,41.6,61.5,44.8,61.5,44.8z"/>
	<path class="st6" d="M44.3,45.1l-3-18.2c0-0.3-0.3-0.5-0.5-0.5h-0.7c-0.3,0-0.5,0.2-0.5,0.5l-3,18.2l-3.3-0.5l3-18.2
		c0.3-1.9,1.9-3.3,3.8-3.3h0.7c1.9,0,3.5,1.4,3.8,3.3l3,18.2L44.3,45.1z"/>
</g>
</svg>
