<?xml version="1.0" encoding="utf-8"?>
<!-- Generator: Adobe Illustrator 23.0.5, SVG Export Plug-In . SVG Version: 6.00 Build 0)  -->
<svg version="1.1" id="Layer_1" xmlns="http://www.w3.org/2000/svg" xmlns:xlink="http://www.w3.org/1999/xlink" x="0px" y="0px"
	 viewBox="0 0 100 100" style="enable-background:new 0 0 100 100;" xml:space="preserve">
<style type="text/css">
	.st0{opacity:0.5;fill:#EFEFEF;}
	.st1{fill:#A4AFC1;}
	.st2{fill:#0F996D;}
	.st3{fill:#D5DBE1;}
	.st4{fill:#00B871;}
	.st5{fill:#484848;}
</style>
<g>
	<path class="st0" d="M11,75.5C11,56.3,1.1,43.2,1.1,34S6.4,5.4,48.9,5.4s48.7,26.1,48.7,36.2C97.5,89.1,11,109.4,11,75.5z"/>
	<g>
		<path class="st1" d="M15.1,16h5.5v2.8h-5.5V16z"/>
		<path class="st1" d="M31,16h5.5v2.8H31V16z"/>
		<path class="st1" d="M24.1,22.9h2.8v5.5h-2.8V22.9z"/>
		<path class="st1" d="M24.1,7h2.8v5.5h-2.8V7z"/>
	</g>
</g>
<g>
	<g id="color">
		<g>
			<path class="st2" d="M68,24.3H40.3c-2.4,0-4.4,2-4.4,4.4v19.2l18.3,8.6l18.3-8.6V28.7C72.4,26.3,70.4,24.3,68,24.3z M47,45.5
				l5.3-6.1h3.9l5.2,6.1H47z M47,38.8l7.2-7.7l7.2,7.7H47z"/>
		</g>
		<g>
			<g>
				<path class="st3" d="M34.2,68.7V42c0-1.3,0.6-2.6,1.7-3.4v-2.6h-0.6l-3.8,2.2c-1.4,0.8-2.2,2.3-2.2,3.9v26.8
					c0,1.8,1.5,3.3,3.3,3.3h5C35.7,72,34.2,70.5,34.2,68.7z"/>
			</g>
		</g>
		<g>
			<g>
				<path class="st4" d="M40.9,47.9V28.7c0-2.4,2-4.4,4.4-4.4h-5c-2.4,0-4.4,2-4.4,4.4v19.2l18.3,8.6l2.5-1.2L40.9,47.9z"/>
			</g>
		</g>
	</g>
	<g id="_x31_.5">
		<g>
			<g>
				<path class="st5" d="M54.1,58.2c-0.9,0-1.9-0.2-2.7-0.6L28.5,46.1l1.5-3l22.9,11.5c0.8,0.4,1.7,0.4,2.5,0l22.9-11.5l1.5,3
					L56.9,57.6C56,58,55.1,58.2,54.1,58.2z"/>
			</g>
		</g>
		<g>
			<g>
				<path class="st5" d="M75.7,73.7H32.6c-2.7,0-5-2.2-5-5V42c0-2.2,1.2-4.2,3.1-5.3l3.8-2.2l1.6,2.9l-3.8,2.2
					C31.4,40,30.9,41,30.9,42v26.8c0,0.9,0.7,1.7,1.7,1.7h43.2c0.9,0,1.7-0.7,1.7-1.7V42c0-1-0.5-1.9-1.4-2.4l-3.8-2.2l1.6-2.9
					l3.8,2.2c1.9,1.1,3.1,3.1,3.1,5.3v26.8C80.7,71.5,78.5,73.7,75.7,73.7z"/>
			</g>
		</g>
		<g>
			<path class="st5" d="M61.3,40.5H47c-0.7,0-1.3-0.4-1.5-1c-0.3-0.6-0.1-1.3,0.3-1.8l7.2-7.7c0.6-0.7,1.8-0.7,2.4,0l7.2,7.7
				c0.4,0.5,0.6,1.2,0.3,1.8C62.6,40.1,62,40.5,61.3,40.5L61.3,40.5z M50.8,37.2h6.8l-3.4-3.6L50.8,37.2z"/>
		</g>
		<g>
			<path class="st5" d="M61.3,47.1H47c-0.7,0-1.2-0.4-1.5-1c-0.3-0.6-0.2-1.3,0.3-1.8l5.3-6.1l2.5,2.2l-2.9,3.3h7.1l-2.9-3.3
				l2.5-2.2l5.2,6.1c0.4,0.5,0.5,1.2,0.3,1.8S62,47.1,61.3,47.1L61.3,47.1z"/>
		</g>
		<g>
			<path class="st5" d="M52.5,46h3.3v3.9h-3.3V46z"/>
		</g>
		<g>
			<g>
				<path class="st5" d="M74.1,47.9h-3.3V28.7c0-1.5-1.2-2.8-2.8-2.8H40.3c-1.5,0-2.8,1.2-2.8,2.8v19.2h-3.3V28.7
					c0-3.4,2.7-6.1,6.1-6.1H68c3.4,0,6.1,2.7,6.1,6.1V47.9z"/>
			</g>
		</g>
	</g>
</g>
</svg>
