<?xml version="1.0" encoding="utf-8"?>
<!-- Generator: Adobe Illustrator 23.0.5, SVG Export Plug-In . SVG Version: 6.00 Build 0)  -->
<svg version="1.1" id="Layer_1" xmlns="http://www.w3.org/2000/svg" xmlns:xlink="http://www.w3.org/1999/xlink" x="0px" y="0px"
	 viewBox="0 0 100 100" style="enable-background:new 0 0 100 100;" xml:space="preserve">
<style type="text/css">
	.st0{opacity:0.5;fill:#EFEFEF;}
	.st1{fill:#A4AFC1;}
	.st2{fill:#0F996D;}
	.st3{fill:#F3F3F1;}
	.st4{fill:#D5DBE1;}
	.st5{fill:#00B871;}
	.st6{fill:#484848;}
</style>
<g>
	<path class="st0" d="M12.6,74.9c0-18.7-9.7-31.5-9.7-40.5s5.2-28,46.6-28S97,31.8,97,41.8C97.1,88.1,12.6,108,12.6,74.9z"/>
	<g>
		<path class="st1" d="M16.6,16.8H22v2.7h-5.4V16.8z"/>
		<path class="st1" d="M32.1,16.8h5.4v2.7h-5.4V16.8z"/>
		<path class="st1" d="M25.3,23.5H28v5.4h-2.7V23.5z"/>
		<path class="st1" d="M25.3,8H28v5.4h-2.7V8z"/>
	</g>
	<path class="st2" d="M39.2,71.1c0,4.5,3.6,8.1,8.1,8.1s8.1-3.6,8.1-8.1H39.2z"/>
	<path class="st3" d="M64.2,43.4V51c0,5.9,2.6,11.6,7.1,15.4l0,0l0,0c0.6,0.5,0.9,1.2,0.9,2.1c0,1.5-1.2,2.7-2.7,2.7H48H25
		c-1.5,0-2.7-1.2-2.7-2.7c0-0.8,0.4-1.6,0.9-2.1l0,0l0,0c4.5-3.8,7.1-9.5,7.1-15.4v-7.5c0-9.3,7.6-16.9,16.9-16.9
		S64.2,34.1,64.2,43.4z"/>
	<path class="st4" d="M28.4,68.4c0-0.8,0.4-1.6,0.9-2.1l0,0l0,0c4.5-3.8,7.1-9.5,7.1-15.4v-7.5c0-8.3,6-15.2,13.9-16.6
		c-1-0.2-2-0.3-3-0.3c-9.3,0-16.9,7.6-16.9,16.9V51c0,5.9-2.6,11.6-7.1,15.4l0,0l0,0c-0.6,0.5-0.9,1.2-0.9,2.1
		c0,1.5,1.2,2.7,2.7,2.7h6.1C29.6,71.1,28.4,69.9,28.4,68.4z"/>
	<circle class="st2" cx="66.2" cy="29.9" r="11.5"/>
	<path class="st5" d="M60.8,29.9c0-5.3,3.6-9.7,8.4-11c-1-0.3-2-0.5-3-0.5c-6.3,0-11.5,5.1-11.5,11.5s5.1,11.5,11.5,11.5
		c1.1,0,2.1-0.2,3-0.5C64.4,39.6,60.8,35.2,60.8,29.9z"/>
	<path class="st6" d="M47.3,81.3c-5.6,0-10.1-4.5-10.1-10.1h4.1c0,3.4,2.7,6.1,6.1,6.1s6.1-2.7,6.1-6.1h4.1
		C57.4,76.7,52.9,81.3,47.3,81.3z"/>
	<path class="st6" d="M69.6,73.2H25c-2.6,0-4.7-2.1-4.7-4.7c0-1.4,0.6-2.7,1.7-3.6c0.1-0.1,0.1-0.1,0.2-0.2c4-3.5,6.2-8.4,6.2-13.7
		v-7.5c0-10.4,8.5-18.9,18.9-18.9c0.4,0,0.9,0,1.3,0.1l-0.7,4c-0.2,0-0.5,0-0.7,0c-8.2,0-14.9,6.7-14.9,14.9V51
		c0,6.5-2.9,12.7-7.8,16.9L24.4,68c-0.1,0.1-0.1,0.2-0.1,0.4c0,0.4,0.3,0.7,0.7,0.7h44.6c0.4,0,0.7-0.3,0.7-0.7
		c0-0.2-0.1-0.3-0.1-0.4l-0.1-0.1c-5-4.2-7.9-10.4-7.9-16.9v-3h4.1v3c0,5.3,2.3,10.3,6.3,13.7c0.1,0,0.1,0.1,0.2,0.1
		c1.1,0.9,1.7,2.2,1.7,3.6C74.3,71.1,72.2,73.2,69.6,73.2L69.6,73.2z"/>
	<path class="st6" d="M66.2,43.4c-7.5,0-13.5-6.1-13.5-13.5s6.1-13.5,13.5-13.5s13.5,6.1,13.5,13.5S73.7,43.4,66.2,43.4z M66.2,20.5
		c-5.2,0-9.5,4.2-9.5,9.5s4.2,9.5,9.5,9.5s9.5-4.2,9.5-9.5S71.4,20.5,66.2,20.5z"/>
</g>
</svg>
