<?xml version="1.0" encoding="utf-8"?>
<!-- Generator: Adobe Illustrator 23.0.5, SVG Export Plug-In . SVG Version: 6.00 Build 0)  -->
<svg version="1.1" id="Layer_1" xmlns="http://www.w3.org/2000/svg" xmlns:xlink="http://www.w3.org/1999/xlink" x="0px" y="0px"
	 viewBox="0 0 100 100" style="enable-background:new 0 0 100 100;" xml:space="preserve">
<style type="text/css">
	.st0{opacity:0.5;fill:#EFEFEF;}
	.st1{fill:#A4AFC1;}
	.st2{fill:#90A4AE;}
	.st3{fill:#0F996D;}
	.st4{fill:#484848;}
	.st5{fill:#FFFFFF;}
</style>
<g>
	<path class="st0" d="M11,76.5C11,57,0.9,43.5,0.9,34.1S6.3,5,49.6,5s49.6,26.6,49.6,36.9C99.2,90.4,11,111.1,11,76.5z"/>
	<g>
		<path class="st1" d="M15.1,15.8h5.6v2.8h-5.6V15.8z"/>
		<path class="st1" d="M31.3,15.8H37v2.8h-5.6v-2.8H31.3z"/>
		<path class="st1" d="M24.3,22.9h2.8v5.6h-2.8V22.9z"/>
		<path class="st1" d="M24.3,6.6h2.8v5.6h-2.8V6.6z"/>
	</g>
</g>
<g>
	<circle class="st2" cx="47.8" cy="37.4" r="3.7"/>
</g>
<g>
	<g>
		<path class="st3" d="M66.3,75.1c-6.6,0-12-5.4-12-12s5.4-12,12-12s12,5.4,12,12S72.9,75.1,66.3,75.1z"/>
	</g>
</g>
<g>
	<path class="st4" d="M49.3,57.9h-9.2c-0.8,0-1.5-0.7-1.5-1.5s0.7-1.5,1.5-1.5h9.2c0.8,0,1.5,0.7,1.5,1.5S50.2,57.9,49.3,57.9z"/>
</g>
<g>
	<path class="st4" d="M47.3,64.1h-7.2c-0.8,0-1.5-0.7-1.5-1.5s0.7-1.5,1.5-1.5h7.2c0.8,0,1.5,0.7,1.5,1.5S48.1,64.1,47.3,64.1z"/>
</g>
<g>
	<path class="st4" d="M47.8,41.5c-2.3,0-4.1-1.8-4.1-4.1s1.8-4.1,4.1-4.1s4.1,1.8,4.1,4.1C51.9,39.7,50.1,41.5,47.8,41.5z
		 M47.8,36.4c-0.6,0-1,0.5-1,1c0,0.6,0.5,1,1,1c0.6,0,1-0.5,1-1C48.8,36.8,48.4,36.4,47.8,36.4z"/>
</g>
<g>
	<path class="st4" d="M54.5,51.8c-0.8,0-1.5-0.7-1.5-1.5v-1c0-1.4-1.2-2.6-2.6-2.6h-5.1c-1.4,0-2.6,1.2-2.6,2.6v1
		c0,0.8-0.7,1.5-1.5,1.5s-1.5-0.7-1.5-1.5v-1c0-3.1,2.5-5.6,5.6-5.6h5.1c3.1,0,5.6,2.5,5.6,5.6v1C56,51.1,55.3,51.8,54.5,51.8z"/>
</g>
<g>
	<path class="st4" d="M47.3,70.3H36c-3.1,0-5.6-2.5-5.6-5.6V32.8c0-3.1,2.5-5.6,5.6-5.6h23.6c3.1,0,5.6,2.5,5.6,5.6v11.4
		c0,0.8-0.7,1.5-1.5,1.5c-0.8,0-1.5-0.7-1.5-1.5V32.8c0-1.4-1.2-2.6-2.6-2.6H36c-1.4,0-2.6,1.2-2.6,2.6v31.8c0,1.4,1.2,2.6,2.6,2.6
		h11.3c0.8,0,1.5,0.7,1.5,1.5S48.1,70.3,47.3,70.3z"/>
</g>
<g>
	<path class="st4" d="M66.3,76.4c-7.4,0-13.3-6-13.3-13.3s6-13.3,13.3-13.3c7.4,0,13.3,6,13.3,13.3S73.6,76.4,66.3,76.4z M66.3,52.8
		c-5.7,0-10.3,4.6-10.3,10.3s4.6,10.3,10.3,10.3s10.3-4.6,10.3-10.3S71.9,52.8,66.3,52.8z"/>
</g>
<g>
	<path class="st5" d="M64.2,68.2c-0.4,0-0.8-0.2-1.1-0.5L59,63.6c-0.6-0.6-0.6-1.6,0-2.2s1.6-0.6,2.2,0l2.9,2.9l6.1-7
		c0.6-0.6,1.5-0.7,2.2-0.1c0.6,0.6,0.7,1.5,0.1,2.2l-7.2,8.2C65.1,68,64.7,68.2,64.2,68.2C64.3,68.2,64.2,68.2,64.2,68.2z"/>
</g>
</svg>
