<?xml version="1.0" encoding="utf-8"?>
<!-- Generator: Adobe Illustrator 23.0.5, SVG Export Plug-In . SVG Version: 6.00 Build 0)  -->
<svg version="1.1" id="Layer_1" xmlns="http://www.w3.org/2000/svg" xmlns:xlink="http://www.w3.org/1999/xlink" x="0px" y="0px"
	 viewBox="0 0 50 50" style="enable-background:new 0 0 50 50;" xml:space="preserve">
<style type="text/css">
	.st0{fill:#E9E9E0;}
	.st1{fill:#D9D7CA;}
	.st2{fill:#EC6630;}
	.st3{fill:#FFFFFF;}
</style>
<g id="XMLID_113_">
	<path id="XMLID_166_" class="st0" d="M31.8,1h-25C6.1,1,5.6,1.6,5.6,2.7v46c0,0.3,0.6,0.9,1.3,0.9h34.5c0.7,0,1.3-0.6,1.3-0.9V12.2
		c0-0.6-0.1-0.8-0.2-0.9l-10-10.1C32.2,1.1,32,1,31.8,1z"/>
	<polygon id="XMLID_142_" class="st1" points="32.3,1.1 32.3,11.4 42.5,11.4 	"/>
	<path id="XMLID_135_" class="st2" d="M41.3,49.5H6.8c-0.7,0-1.3-0.6-1.3-1.3V34.8h37v13.5C42.6,48.9,42,49.5,41.3,49.5z"/>
	<g id="XMLID_125_">
		<path id="XMLID_134_" class="st3" d="M15,38.2v8.7h-1.4V43H9.8v3.9H8.4v-8.7h1.4V42h3.8v-3.8H15z"/>
		<path id="XMLID_132_" class="st3" d="M23.3,38.2v1h-2.6v7.8h-1.4v-7.8h-2.6v-1H23.3z"/>
		<path id="XMLID_127_" class="st3" d="M31.6,38.2H33v8.7h-1.4v-6l-1.9,4.9h-1.2l-2-4.9v6H25v-8.7h1.4l2.6,6L31.6,38.2z"/>
		<path id="XMLID_126_" class="st3" d="M36.6,38.2v7.6h4v1.1h-5.4v-8.7H36.6z"/>
	</g>
	<g id="XMLID_117_">
		<path id="XMLID_120_" class="st2" d="M20,15.1c-0.3-0.3-0.9-0.3-1.2,0l-5.2,5.2c-0.3,0.3-0.3,0.9,0,1.2l5.2,5.2
			c0.2,0.2,0.4,0.3,0.6,0.3c0.2,0,0.4-0.1,0.6-0.3c0.3-0.3,0.3-0.9,0-1.2l-4.6-4.6l4.6-4.6C20.3,16,20.3,15.4,20,15.1z"/>
		<path id="XMLID_118_" class="st2" d="M35.5,20.3l-5.2-5.2c-0.3-0.3-0.9-0.3-1.2,0c-0.3,0.3-0.3,0.9,0,1.2l4.6,4.6l-4.6,4.6
			c-0.3,0.3-0.3,0.9,0,1.2c0.2,0.2,0.4,0.3,0.6,0.3c0.2,0,0.4-0.1,0.6-0.3l5.2-5.2C35.8,21.2,35.8,20.6,35.5,20.3z"/>
	</g>
</g>
</svg>
