<?xml version="1.0" encoding="utf-8"?>
<!-- Generator: Adobe Illustrator 23.0.5, SVG Export Plug-In . SVG Version: 6.00 Build 0)  -->
<svg version="1.1" id="Layer_1" xmlns="http://www.w3.org/2000/svg" xmlns:xlink="http://www.w3.org/1999/xlink" x="0px" y="0px"
	 viewBox="0 0 50 50" style="enable-background:new 0 0 50 50;" xml:space="preserve">
<style type="text/css">
	.st0{fill:#8F9ED1;}
	.st1{fill:#F2F2F2;}
</style>
<g>
	<path class="st0" d="M49.2,25.2c0,1.5-0.1,2.9-0.4,4.3c-2,11.3-12,19.9-23.9,19.9c-9,0-16.9-4.9-21-12.1c-1-1.8-1.8-3.7-2.4-5.7
		c-0.6-2-0.9-4.2-0.9-6.4C0.6,11.8,11.5,1,24.9,1C36,1,45.3,8.4,48.3,18.5C48.9,20.6,49.2,22.9,49.2,25.2z"/>
	<g>
		<path class="st1" d="M13,17.8H4.1L1.5,31.6c0.6,2,1.4,3.9,2.4,5.7h0.8l1-5.3h4.9c6,0,7.6-5.4,8-8C19,21.3,17,17.8,13,17.8z
			 M14.3,24.4c-0.2,1.5-1.3,4.5-4.7,4.5H6.3l1.5-8h3.4C14.4,20.9,14.5,22.9,14.3,24.4z"/>
		<path class="st1" d="M48.3,18.5c-0.8-0.4-1.7-0.6-2.7-0.6h-8.9L33,37.3h4.3l1-5.3h4.9c2.7,0,4.5-1.1,5.7-2.5
			c0.2-1.4,0.4-2.8,0.4-4.3C49.2,22.9,48.9,20.6,48.3,18.5z M46.8,24.4c-0.2,1.5-1.3,4.5-4.7,4.5h-3.3l1.5-8h3.4
			C47,20.9,47.1,22.9,46.8,24.4z"/>
		<path class="st1" d="M30,17.9c-1.7,0-4.1,0-5.2,0l1-5.2h-4.2l-3.6,19.4h4.2l2.1-11.2c0.8,0,1.8,0,2.7,0c1.8,0,3,0.4,2.8,2.1
			c-0.3,1.7-1.7,9-1.7,9h4.3c0,0,1.7-8.2,1.9-10.5C34.5,19.2,32.4,17.9,30,17.9z"/>
	</g>
</g>
</svg>
