<?xml version="1.0" encoding="utf-8"?>
<!-- Generator: Adobe Illustrator 23.0.5, SVG Export Plug-In . SVG Version: 6.00 Build 0)  -->
<svg version="1.1" id="Layer_1" xmlns="http://www.w3.org/2000/svg" xmlns:xlink="http://www.w3.org/1999/xlink" x="0px" y="0px"
	 viewBox="0 0 50 50" style="enable-background:new 0 0 50 50;" xml:space="preserve">
<style type="text/css">
	.st0{fill:#90CAF9;}
	.st1{fill:#283593;}
</style>
<g>
	<path class="st0" d="M1.5,1h45.7c0.5,0,1,0.4,1,1v45.5c0,0.5-0.4,1-1,1H1.5c-0.5,0-1-0.4-1-1V2C0.5,1.4,0.9,1,1.5,1z"/>
	<path class="st1" d="M5.5,5h37.8c0.5,0,1,0.4,1,1v37.6c0,0.5-0.4,1-1,1H5.5c-0.5,0-1-0.4-1-1V5.9C4.5,5.4,4.9,5,5.5,5z"/>
	<g>
		<path class="st0" d="M15.4,34.7c-0.5,0-1-0.4-1-1V15.8c0-0.5,0.4-0.9,0.9-1c2.9-0.4,6.9-0.4,9.2,1.6c1.2,1.1,1.9,2.7,1.8,4.3
			c0,2-1.1,3.9-2.8,4.9c-2.1,1.3-4.7,1.8-7.1,1.4v6.6C16.4,34.2,15.9,34.7,15.4,34.7z M16.4,25c2.1,0.5,4.2,0.1,6-1
			c1.2-0.7,1.9-1.9,1.9-3.2c0.1-1.1-0.4-2.1-1.1-2.8c-2-1.3-4.5-1.7-6.8-1.3L16.4,25L16.4,25z"/>
		<path class="st0" d="M32.4,34.7c-1.4,0-2.7-0.5-3.8-1.3c-0.4-0.4-0.4-1,0-1.4c0.4-0.4,1-0.4,1.4,0c1,0.7,2.2,0.9,3.3,0.6
			c0.2-0.1,0.9-0.4,0.9-1.9c0-1.3-0.7-1.7-2.4-2.3c-1.5-0.5-3.5-1.2-3.5-3.7c-0.1-1.5,0.8-3,2.2-3.6c1.8-0.7,3.9-0.4,5.4,0.9
			c0.4,0.4,0.4,1,0,1.4c-0.4,0.4-1,0.4-1.4,0l0,0c-0.9-0.7-2.2-0.9-3.3-0.5c-0.7,0.3-1.1,1-1,1.8c0,1,0.6,1.3,2.2,1.8
			c1.6,0.5,3.8,1.3,3.8,4.1c0.2,1.6-0.7,3-2.2,3.7C33.6,34.6,33,34.7,32.4,34.7z"/>
	</g>
</g>
</svg>
